<svg width="280" height="265" viewBox="0 0 280 265" fill="none" xmlns="http://www.w3.org/2000/svg">
<path d="M41.0098 0V49.2286C41.0098 52.9466 44.0239 55.9607 47.7419 55.9607H95.2875C99.0056 55.9607 102.02 58.9748 102.02 62.6928V110.238C102.02 113.956 105.034 116.971 108.752 116.971H156.297C160.015 116.971 163.029 119.985 163.029 123.703V171.248C163.029 174.966 166.044 177.98 169.762 177.98H217.307C221.025 177.98 224.039 180.994 224.039 184.712V232.258C224.039 235.976 227.053 238.99 230.771 238.99H280M-20 0V49.2286C-20 52.9466 -16.9859 55.9607 -13.2679 55.9607H34.2777C37.9957 55.9607 41.0098 58.9748 41.0098 62.6928V110.238C41.0098 113.956 44.0239 116.971 47.7419 116.971H95.2875C99.0056 116.971 102.02 119.985 102.02 123.703V171.248C102.02 174.966 99.0056 177.98 95.2875 177.98H47.7419C44.0239 177.98 41.0098 174.966 41.0098 171.248V122.861L40.9509 122.463C40.4992 119.414 37.9109 117.137 34.829 117.078L29.2286 116.971H-13.2679C-16.9859 116.971 -20 119.985 -20 123.703V171.248C-20 174.966 -16.9859 177.98 -13.2679 177.98H34.6985L36.2966 178.087C38.9489 178.264 41.0098 180.467 41.0098 183.125V188.289M41.0098 183.029V232.258C41.0098 235.976 44.0239 238.99 47.7419 238.99H95.2875C99.0056 238.99 102.02 242.004 102.02 245.722V293.268C102.02 296.986 105.034 300 108.752 300H156.297C160.015 300 163.029 303.014 163.029 306.732V354.278C163.029 357.996 166.044 361.01 169.762 361.01H217.307C221.025 361.01 224.039 364.024 224.039 367.742V415.287C224.039 419.005 227.053 422.02 230.771 422.02H280" stroke="url(#paint0_linear_2087_5308)" stroke-opacity="0.8" stroke-width="0.529536"/>
<defs>
<linearGradient id="paint0_linear_2087_5308" x1="-20" y1="0" x2="273.268" y2="362.903" gradientUnits="userSpaceOnUse">
<stop offset="0.0819437" stop-color="#F7F7F7"/>
<stop offset="0.208333" stop-color="#12C2E9"/>
<stop offset="0.526042" stop-color="#C471ED"/>
<stop offset="0.9375" stop-color="#F64F59"/>
</linearGradient>
</defs>
</svg>
