<svg width="40" height="40" viewBox="0 0 40 40" fill="none" xmlns="http://www.w3.org/2000/svg">
<path d="M14.1 33.1002C10.69 31.7264 7.86435 29.2088 6.10774 25.9793C4.35114 22.7498 3.77309 19.0096 4.47278 15.4005C5.17246 11.7913 7.10626 8.53816 9.94243 6.19901C12.7786 3.85987 16.3404 2.58057 20.0167 2.58057C23.6931 2.58057 27.2548 3.85987 30.091 6.19901C32.9272 8.53816 34.861 11.7913 35.5606 15.4005C36.2603 19.0096 35.6823 22.7498 33.9257 25.9793C32.1691 29.2088 29.3434 31.7264 25.9334 33.1002" stroke="#3C4043" stroke-width="2.5" stroke-miterlimit="10" stroke-linecap="round"/>
<path d="M26.2833 25.5501C27.7307 24.2738 28.755 22.587 29.22 20.7142C29.6851 18.8414 29.5687 16.8713 28.8865 15.0663C28.2043 13.2612 26.9886 11.7067 25.4011 10.6096C23.8136 9.51246 21.9297 8.9248 20 8.9248C18.0703 8.9248 16.1864 9.51246 14.5989 10.6096C13.0114 11.7067 11.7957 13.2612 11.1135 15.0663C10.4313 16.8713 10.315 18.8414 10.78 20.7142C11.245 22.587 12.2693 24.2738 13.7167 25.5501" stroke="#3C4043" stroke-width="2.5" stroke-miterlimit="10" stroke-linecap="round"/>
<path d="M19.9999 19.9998C21.7488 19.9998 23.1666 18.5821 23.1666 16.8332C23.1666 15.0843 21.7488 13.6665 19.9999 13.6665C18.251 13.6665 16.8333 15.0843 16.8333 16.8332C16.8333 18.5821 18.251 19.9998 19.9999 19.9998Z" stroke="#3C4043" stroke-width="2.5" stroke-miterlimit="10"/>
<path d="M23.1666 26.3332C23.1666 28.0832 23.1666 37.4165 19.9999 37.4165C16.8333 37.4165 16.8333 28.0832 16.8333 26.3332C16.8333 25.4933 17.1669 24.6879 17.7607 24.094C18.3546 23.5001 19.1601 23.1665 19.9999 23.1665C20.8398 23.1665 21.6452 23.5001 22.2391 24.094C22.833 24.6879 23.1666 25.4933 23.1666 26.3332Z" stroke="#3C4043" stroke-width="2.5" stroke-miterlimit="10"/>
</svg>
