<svg width="127" height="136" viewBox="0 0 127 136" fill="none" xmlns="http://www.w3.org/2000/svg">
<path d="M42.5 61.5C58.5755 70.9288 67.7602 71.0677 84.5 61.5C114.224 69.8619 122.893 81.8429 126 114.5C78.1744 140.685 50.8499 141.769 1.02157 114.307C4.70753 81.4849 13.2368 69.3469 42.5 61.5Z" fill="#941C1C"/>
<path d="M1 114.5C1.00717 114.436 1.01436 114.371 1.02157 114.307M1.02157 114.307C4.70753 81.4849 13.2368 69.3469 42.5 61.5C58.5755 70.9288 67.7602 71.0677 84.5 61.5C114.224 69.8619 122.893 81.8429 126 114.5C78.1744 140.685 50.8499 141.769 1.02157 114.307Z" stroke="#941C1C"/>
<path d="M94.5 32C94.5 49.4044 80.6134 63.5 63.5 63.5C46.3866 63.5 32.5 49.4044 32.5 32C32.5 14.5956 46.3866 0.5 63.5 0.5C80.6134 0.5 94.5 14.5956 94.5 32Z" fill="#941C1C" stroke="#941C1C"/>
</svg>
