<svg width="65" height="75" viewBox="0 0 65 75" fill="none" xmlns="http://www.w3.org/2000/svg">
<path fill-rule="evenodd" clip-rule="evenodd" d="M14.8277 55.2917C20.594 61.0596 26.39 64.2822 32.2333 64.4653C38.0885 64.6484 44.0682 61.7676 50.196 55.3284C49.3071 55.1147 48.3589 54.9072 47.3573 54.6997V54.7058L47.2151 54.6753C45.4609 54.3152 42.2547 53.6499 40.2339 52.3865C39.0842 51.6663 38.4323 50.9644 38.45 50C36.9329 50.9338 35.3387 51.532 33.703 51.77C31.2081 52.1362 28.6479 51.6541 26.1351 50.2441C26.2596 51.3245 25.6788 52.0813 24.5646 52.7771C22.8342 53.8574 20.0547 54.3274 18.022 54.6692C17.5479 54.7485 17.1152 54.8218 16.7004 54.9072C16.0485 55.0232 15.4262 55.1514 14.8277 55.2917ZM22.5556 15.8569C26.4729 22.9004 34.029 27.6062 48.0685 28.1433C48.4774 29.3701 48.347 30.658 48.0685 31.9519C42.3081 52.2156 27.5515 57.9346 17.3523 37.262L15.8233 33.0383C12.7001 26.4648 18.5198 29.1443 20.6473 24.4873L21.5422 20.4407L22.5556 15.8569ZM50.196 35.8276C55.5653 14.3555 50.2434 5.27344 40.4591 3.55835C38.3789 1.2146 34.5031 0.152588 31.7651 0C8.11907 1.23291 7.04048 27.179 12.9609 44.2688L18.7687 42.9504C20.4814 45.5017 22.283 47.4731 24.1261 48.9014L24.1854 48.999C24.7898 50.0244 24.4283 50.7202 23.6401 51.2085C22.2119 52.1057 19.6221 52.5391 17.7257 52.8564C17.1864 52.948 16.6945 53.0273 16.3507 53.1006C10.14 54.3518 6.08042 55.8411 3.51431 58.96C0.960066 62.0667 0 66.6626 0 74.0906C0 74.5972 0.397064 75 0.883023 75H64.117C64.6089 75 65 74.5911 65 74.0906C65 66.4612 63.9866 61.8713 61.2664 58.7891C58.5581 55.719 54.2733 54.2786 47.6951 52.9175V52.9114L47.5529 52.8809C45.8994 52.5391 42.877 51.9165 41.1347 50.8301C40.2457 50.2747 39.742 49.5789 40.2161 48.7244C40.7376 48.2971 41.2473 47.8271 41.7451 47.3144C44.323 44.6777 46.5869 40.9302 48.3352 36.2549L50.196 35.8276ZM52.5488 55.9509C45.692 63.4888 38.9064 66.8518 32.1741 66.6443C25.4417 66.4368 18.8635 62.6526 12.4216 55.9021C8.96061 56.8909 6.51304 58.1482 4.87144 60.1379C2.72019 62.7502 1.84902 66.7419 1.7779 73.175H63.228C63.151 66.5771 62.2443 62.5977 59.9626 60.0098C58.321 58.1421 55.909 56.9397 52.5488 55.9509Z" fill="#941C1C"/>
</svg>
