<svg width="40" height="40" viewBox="0 0 40 40" fill="none" xmlns="http://www.w3.org/2000/svg">
<path d="M15.9146 24.9026C15.3822 24.5079 14.6307 24.6196 14.236 25.152C13.8414 25.6843 13.9531 26.436 14.4855 26.8305C16.0413 27.9838 17.944 28.6665 20 28.6665C22.0559 28.6665 23.9586 27.9838 25.5144 26.8305C26.0469 26.436 26.1586 25.6843 25.7639 25.152C25.3691 24.6196 24.6176 24.5079 24.0853 24.9026C22.9199 25.7662 21.5134 26.2666 20 26.2666C18.4866 26.2666 17.0799 25.7662 15.9146 24.9026Z" fill="#3C4043"/>
<path fill-rule="evenodd" clip-rule="evenodd" d="M20 4.6665C18.9658 4.6665 18.0222 4.95051 16.9894 5.4326C15.9896 5.89928 14.8334 6.58803 13.3843 7.45122L11.3081 8.68802C9.71187 9.63887 8.4399 10.3966 7.47683 11.1211C6.48264 11.8691 5.73644 12.6393 5.25017 13.6536C4.76367 14.6684 4.6318 15.7305 4.67409 16.97C4.71504 18.1698 4.92493 19.6286 5.18811 21.4574L5.60512 24.3555C5.94372 26.7088 6.2124 28.5762 6.61384 30.0303C7.02764 31.5289 7.61477 32.7185 8.67425 33.6308C9.73288 34.5424 10.9995 34.9501 12.5492 35.1445C14.0543 35.3332 15.9532 35.3332 18.3487 35.3332H21.6513C24.0469 35.3332 25.9458 35.3332 27.4509 35.1445C29.0006 34.9501 30.2672 34.5424 31.3259 33.6308C32.3852 32.7185 32.9725 31.5289 33.3862 30.0303C33.7876 28.5764 34.0563 26.7088 34.395 24.3555L34.8119 21.4574C35.0752 19.6284 35.285 18.1698 35.3259 16.97C35.3683 15.7305 35.2364 14.6684 34.7498 13.6536C34.2636 12.6393 33.5175 11.8691 32.5233 11.1211C31.5602 10.3966 30.2882 9.63887 28.692 8.68802L26.6158 7.45122C25.1667 6.58803 24.0105 5.89928 23.0106 5.4326C21.9778 4.95051 21.0343 4.6665 20 4.6665ZM14.4309 9.31815C15.9393 8.41962 17.0036 7.7871 17.8943 7.37135C18.7631 6.96583 19.3878 6.80604 20 6.80604C20.6124 6.80604 21.237 6.96583 22.1058 7.37135C22.9965 7.7871 24.0607 8.41962 25.5691 9.31815L27.5445 10.4948C29.2052 11.4841 30.3771 12.1839 31.237 12.8308C32.0763 13.4623 32.536 13.9848 32.8205 14.5785C33.105 15.1717 33.2232 15.8539 33.1877 16.8971C33.1512 17.9666 32.9593 19.3099 32.6855 21.2138L32.2878 23.9771C31.9362 26.4207 31.6849 28.1532 31.3239 29.4609C30.971 30.7387 30.5464 31.4786 29.9297 32.0095C29.3123 32.5412 28.512 32.8552 27.1846 33.0216C25.8281 33.1916 24.0634 33.1936 21.5777 33.1936H18.4223C15.9367 33.1936 14.172 33.1916 12.8155 33.0216C11.4882 32.8552 10.6878 32.5412 10.0703 32.0095C9.45374 31.4786 9.02903 30.7387 8.67621 29.4609C8.31518 28.1532 8.06384 26.4207 7.71225 23.9771L7.31462 21.2137C7.04068 19.3099 6.84889 17.9666 6.81239 16.8971C6.7768 15.8539 6.89507 15.1717 7.17946 14.5785C7.46408 13.9848 7.92373 13.4623 8.7631 12.8308C9.62302 12.1839 10.7949 11.4841 12.4557 10.4948L14.4309 9.31815Z" fill="#3C4043"/>
</svg>
