<?xml version="1.0" encoding="UTF-8"?>
<svg version="1.1" xmlns="http://www.w3.org/2000/svg" width="500" height="500">
<path d="M0 0 C8.8963855 1.70388637 17.79266167 3.40834227 26.68881607 5.11343479 C31.62353422 6.05923394 36.55832508 7.00465234 41.49318695 7.94970131 C43.89431552 8.40965835 46.29536831 8.87000938 48.69641113 9.33041382 C51.91836821 9.94818484 55.14065673 10.56418827 58.36315918 11.17910767 C65.76932348 12.59476033 73.17136885 14.02591935 80.56212234 15.52021503 C83.83697338 16.18223221 87.11321496 16.83723312 90.3894577 17.49232292 C91.92795128 17.80234249 93.46569191 18.11612739 95.00257111 18.43405342 C110.95447055 21.77194049 110.95447055 21.77194049 126.8046875 19.03125 C128.54492188 18.42216797 128.54492188 18.42216797 130.3203125 17.80078125 C131.49335938 17.37152344 132.66640625 16.94226563 133.875 16.5 C136.24500463 15.64955653 138.61732449 14.80553059 140.9921875 13.96875 C142.02714355 13.59169922 143.06209961 13.21464844 144.12841797 12.82617188 C146.9190541 12.02328863 149.11682519 11.83301309 152 12 C152 12.99 152 13.98 152 15 C150.36352539 16.4387207 150.36352539 16.4387207 148.09765625 17.92578125 C147.29005859 18.47556641 146.48246094 19.02535156 145.65039062 19.59179688 C143.93323042 20.73354641 142.21189226 21.86903865 140.48632812 22.99804688 C135.56677081 26.23968031 135.56677081 26.23968031 132.82421875 31.2734375 C132.75630621 34.11922114 132.75630621 34.11922114 134.75 36.3125 C139.10582358 39.57936769 143.75781811 39.73108083 149 39 C154.67815526 36.77101181 159.3994992 33.0989081 163.98046875 29.13671875 C166.88179913 27.50366819 168.71133413 27.56232929 172 28 C174.91015625 29.625 174.91015625 29.625 178.0625 32 C178.93032104 32.64485352 178.93032104 32.64485352 179.81567383 33.30273438 C181.88976436 34.8523576 183.94475625 36.42546825 186 38 C187.82517693 39.3858697 189.65071937 40.77125811 191.4765625 42.15625 C195.98017892 45.57732178 200.47123532 49.0143613 204.95385742 52.46289062 C206.59618917 53.69664801 208.29086847 54.86057898 210 56 C210.375 59.5 210.375 59.5 210 63 C207 65 207 65 204.23046875 64.94140625 C200.10321994 63.73866506 197.56088839 61.6739755 194.3125 58.9375 C190.21269773 55.1862978 190.21269773 55.1862978 185 54 C184.67 54.66 184.34 55.32 184 56 C184.56460938 56.2578125 185.12921875 56.515625 185.7109375 56.78125 C188.24936904 58.13276986 190.3685305 59.7189739 192.625 61.5 C193.40101563 62.1084375 194.17703125 62.716875 194.9765625 63.34375 C197 65 197 65 199 67 C199.25 70 199.25 70 199 73 C197 75 197 75 194.390625 75.5 C189.44501141 74.77069293 186.56044376 72.09860262 182.75 69 C181.33123023 67.87108642 179.90949771 66.74588303 178.484375 65.625 C177.86272461 65.12226563 177.24107422 64.61953125 176.60058594 64.1015625 C175.04924844 62.81102199 175.04924844 62.81102199 173 63 C174.41261282 66.3990996 176.00455611 68.02158168 179 70.125 C181.19111681 71.67972627 183.09558225 73.09558225 185 75 C184.8125 78 184.8125 78 184 81 C181 83 181 83 178.76953125 82.94140625 C174.88145042 81.6197878 171.95442338 79.38348692 168.6875 76.9375 C168.04232422 76.46505859 167.39714844 75.99261719 166.73242188 75.50585938 C165.14929949 74.34490296 163.57386431 73.17347664 162 72 C161.34 72.99 160.68 73.98 160 75 C160.598125 75.268125 161.19625 75.53625 161.8125 75.8125 C164.07573361 77.04111253 165.51540577 77.89031346 167 80 C166.6875 82.6875 166.6875 82.6875 166 85 C152.82443068 87.71377398 140.29946988 82.37101173 129.1875 75.625 C123.97821117 72.17469181 119.0171235 68.30011728 115.72143555 62.90820312 C114.16350429 60.78259034 114.16350429 60.78259034 111.71020508 60.62182617 C110.82228271 60.67830322 109.93436035 60.73478027 109.01953125 60.79296875 C108.02832275 60.84590088 107.03711426 60.89883301 106.01586914 60.95336914 C104.95875732 61.03063232 103.90164551 61.10789551 102.8125 61.1875 C101.72767334 61.24993896 100.64284668 61.31237793 99.52514648 61.37670898 C96.34833649 61.56360789 93.17446416 61.77710327 90 62 C84.66796881 62.35934189 79.33602805 62.70446614 74 63 C73.28730957 63.04608398 72.57461914 63.09216797 71.84033203 63.13964844 C62.10110787 63.72065158 54.88708215 63.4416408 47 57 C45.96875 56.21625 44.9375 55.4325 43.875 54.625 C43.25625 54.08875 42.6375 53.5525 42 53 C42.33 52.01 42.66 51.02 43 50 C46.96 49.34 50.92 48.68 55 48 C52.88271484 48.10441406 52.88271484 48.10441406 50.72265625 48.2109375 C32.5376064 48.84926588 32.5376064 48.84926588 26.859375 43.921875 C26.24578125 43.28765625 25.6321875 42.6534375 25 42 C24.18015625 41.24203125 23.3603125 40.4840625 22.515625 39.703125 C16.24943182 33.74829545 16.24943182 33.74829545 15 30 C26.88 29.67 38.76 29.34 51 29 C41.72711594 28.46247373 41.72711594 28.46247373 32.45263672 27.95385742 C31.29006348 27.88013916 30.12749023 27.8064209 28.9296875 27.73046875 C27.74616699 27.66239014 26.56264648 27.59431152 25.34326172 27.52416992 C16.69060214 26.1675714 12.1950316 20.53423525 7 14 C0 4.16666667 0 4.16666667 0 0 Z " fill="#8D0201" transform="translate(80,220)"/>
<path d="M0 0 C0.33 0.66 0.66 1.32 1 2 C-0.2797836 4.32167801 -1.59864204 6.48573464 -3.0625 8.6875 C-3.47935059 9.32091309 -3.89620117 9.95432617 -4.32568359 10.60693359 C-13.44533568 24.29169542 -13.44533568 24.29169542 -21 27 C-26.13216246 27.76908273 -31.25679505 28.01553622 -36.4375 28.25 C-41.243125 28.4975 -46.04875 28.745 -51 29 C-32.685 29.495 -32.685 29.495 -14 30 C-20.78552972 39.04737295 -20.78552972 39.04737295 -25.6875 42.9375 C-26.61949219 43.68902344 -27.55148437 44.44054687 -28.51171875 45.21484375 C-32.47790889 48.06028943 -35.91687115 48.23186236 -40.6875 48.5625 C-41.86699219 48.64628906 -43.04648437 48.73007812 -44.26171875 48.81640625 C-45.16535156 48.87699219 -46.06898438 48.93757813 -47 49 C-44.03 49.495 -44.03 49.495 -41 50 C-42.52400341 54.01290838 -44.98729416 55.74532242 -48.4375 58.1875 C-49.88962891 59.22970703 -49.88962891 59.22970703 -51.37109375 60.29296875 C-61.3625381 66.78072682 -78.98003405 62.78615009 -90.5 62.0625 C-91.19709076 62.01902435 -91.89418152 61.97554871 -92.61239624 61.93075562 C-95.92753161 61.72143246 -99.2387611 61.49493623 -102.55078125 61.23876953 C-104.62816818 61.09496401 -106.71061955 60.99788802 -108.79296875 60.99169922 C-111.15625 60.93359375 -111.15625 60.93359375 -115 60 C-116.50348479 58.18955491 -117.49760188 56.32208903 -118.58642578 54.23730469 C-121.3558219 49.85410158 -125.7943871 47.13075884 -129.9375 44.125 C-130.87102295 43.43462646 -131.8045459 42.74425293 -132.76635742 42.03295898 C-134.63707357 40.6529172 -136.51208285 39.27867364 -138.39160156 37.91064453 C-140.68866389 36.22805283 -142.95497211 34.51435973 -145.2109375 32.77734375 C-146.41084458 31.87158219 -147.61131527 30.96656651 -148.8125 30.0625 C-149.82957031 29.29035156 -150.84664063 28.51820313 -151.89453125 27.72265625 C-156.20215664 25.3331433 -160.32331467 24.32618164 -165.25 25.56640625 C-165.8275 25.89511719 -166.405 26.22382813 -167 26.5625 C-167.65226562 26.93117187 -168.30453125 27.29984375 -168.9765625 27.6796875 C-171.86793534 29.56633619 -174.6231908 31.59593699 -177.3359375 33.73046875 C-181.23908173 36.70821963 -185.25198899 36.50600473 -190 36 C-192.5625 34.5 -192.5625 34.5 -194 33 C-192.56283975 29.51321279 -190.87050345 27.87053502 -187.82421875 25.6875 C-186.99599609 25.08679688 -186.16777344 24.48609375 -185.31445312 23.8671875 C-184.44755859 23.25101563 -183.58066406 22.63484375 -182.6875 22 C-180.98247518 20.7716626 -179.27803145 19.54251815 -177.57421875 18.3125 C-176.77564453 17.73918945 -175.97707031 17.16587891 -175.15429688 16.57519531 C-173.40687522 15.29750214 -171.7020756 13.96166048 -170.01171875 12.609375 C-166.01888444 9.41510755 -161.98405829 9.78097715 -157 10 C-153.74951172 11.00976562 -153.74951172 11.00976562 -150.4296875 12.40625 C-149.19033066 12.90811179 -147.95073945 13.40939507 -146.7109375 13.91015625 C-144.79900919 14.6984245 -142.89048957 15.49343656 -140.98632812 16.30029297 C-139.12091889 17.08498775 -137.24541901 17.84035669 -135.3671875 18.59375 C-134.26487793 19.05458984 -133.16256836 19.51542969 -132.02685547 19.99023438 C-122.80155099 22.89028244 -112.23499058 20.84148225 -102.9675293 19.07226562 C-101.84397034 18.86744064 -100.72041138 18.66261566 -99.56280518 18.45158386 C-95.89784282 17.7806933 -92.23611855 17.09364223 -88.57421875 16.40625 C-86.01465582 15.93441792 -83.45490416 15.46360867 -80.89497375 14.99377441 C-74.87662786 13.88667477 -68.86026017 12.76937815 -62.84475404 11.6469655 C-55.98775218 10.36814246 -49.12831933 9.1026035 -42.26866663 7.83808994 C-28.17638892 5.24000575 -14.08718904 2.62552846 0 0 Z M-59 47 C-59 47.33 -59 47.66 -59 48 C-57.02 48 -55.04 48 -53 48 C-53 47.67 -53 47.34 -53 47 C-54.98 47 -56.96 47 -59 47 Z " fill="#8C0202" transform="translate(410,220)"/>
<path d="M0 0 C0.82387207 0.19867676 1.64774414 0.39735352 2.49658203 0.60205078 C34.53617326 8.53617326 34.53617326 8.53617326 41 15 C41.14426614 19.66845228 41.04208415 24.32865953 41 29 C49.58 29 58.16 29 67 29 C64.25126673 30.83248885 63.16297439 31.33074234 60.0793457 31.86962891 C59.29876297 32.00962311 58.51818024 32.14961731 57.71394348 32.29385376 C56.87634995 32.43664764 56.03875641 32.57944153 55.17578125 32.7265625 C54.31438034 32.87910492 53.45297943 33.03164734 52.56547546 33.18881226 C49.81560573 33.67420164 47.06413173 34.14971161 44.3125 34.625 C42.44715149 34.95247553 40.58191552 35.28059278 38.71679688 35.609375 C34.14580349 36.41370054 29.57334682 37.20917038 25 38 C25 33.71 25 29.42 25 25 C21.67187521 23.98009079 18.33871487 22.98449285 15 22 C14.35643555 21.80712402 13.71287109 21.61424805 13.04980469 21.41552734 C-14.15004543 13.30898015 -43.08287157 10.31922079 -71 17 C-71.66225586 17.1551709 -72.32451172 17.3103418 -73.00683594 17.47021484 C-81.21416567 19.41970406 -89.12438 21.97921425 -97 25 C-97.33 29.95 -97.66 34.9 -98 40 C-113.73046347 36.92457661 -129.39268676 33.65117678 -145 30 C-145 29.67 -145 29.34 -145 29 C-134.77 29 -124.54 29 -114 29 C-114 24.05 -114 19.1 -114 14 C-100.94468071 8.12137623 -87.92979385 3.35916992 -74 0 C-73.27538574 -0.17934082 -72.55077148 -0.35868164 -71.80419922 -0.54345703 C-49.6786218 -5.75038773 -22.03429393 -5.453451 0 0 Z " fill="#535353" transform="translate(284,197)"/>
<path d="M0 0 C11.99467643 -1.04807852 11.99467643 -1.04807852 16.2421875 1.171875 C20.35164907 5.14877329 23.14990528 10.25202673 26.12109375 15.09765625 C34.53365948 28.0925343 45.18253889 37.62408117 58 46 C58.95132813 46.65097656 59.90265625 47.30195313 60.8828125 47.97265625 C61.74648437 48.53855469 62.61015625 49.10445313 63.5 49.6875 C64.2528125 50.18636719 65.005625 50.68523437 65.78125 51.19921875 C68.01477472 52.24547809 68.01477472 52.24547809 70.42578125 51.33984375 C93.49817124 39.33099736 109.08859452 22.906549 121 0 C126.61 0 132.22 0 138 0 C137.13108416 5.21349502 135.90986944 8.69371106 133.4375 13.1875 C132.90177368 14.17206177 132.90177368 14.17206177 132.35522461 15.17651367 C126.80765693 25.1606753 119.82539944 33.7166598 112 42 C111.30261719 42.76183594 110.60523438 43.52367187 109.88671875 44.30859375 C101.25849216 53.41003204 90.6825717 59.73097744 80 66.125 C79.1867627 66.62306152 78.37352539 67.12112305 77.53564453 67.63427734 C76.76075684 68.08754395 75.98586914 68.54081055 75.1875 69.0078125 C74.50042969 69.41660645 73.81335938 69.82540039 73.10546875 70.24658203 C69.71520258 71.4597501 67.17867028 70.51610247 63.97045898 69.11132812 C63.31891846 68.75490234 62.66737793 68.39847656 61.99609375 68.03125 C61.26156982 67.62986816 60.5270459 67.22848633 59.77026367 66.81494141 C58.61554565 66.16404541 58.61554565 66.16404541 57.4375 65.5 C56.63610596 65.04931152 55.83471191 64.59862305 55.0090332 64.13427734 C30.89629215 50.32581601 9.45469764 28.62243809 0 2 C0 1.34 0 0.68 0 0 Z " fill="#535353" transform="translate(178,284)"/>
<path d="M0 0 C1.21816406 0.03480469 1.21816406 0.03480469 2.4609375 0.0703125 C3.68683594 0.09738281 3.68683594 0.09738281 4.9375 0.125 C5.87722656 0.15980469 5.87722656 0.15980469 6.8359375 0.1953125 C10.56987581 7.37718533 13.8057668 14.69080463 16.8359375 22.1953125 C17.06780762 21.59992676 17.29967773 21.00454102 17.53857422 20.39111328 C18.59062001 17.69869624 19.65067042 15.00950202 20.7109375 12.3203125 C21.07574219 11.38316406 21.44054687 10.44601563 21.81640625 9.48046875 C22.17089844 8.58457031 22.52539062 7.68867187 22.890625 6.765625 C23.21530762 5.93820801 23.53999023 5.11079102 23.87451172 4.25830078 C24.8359375 2.1953125 24.8359375 2.1953125 26.8359375 0.1953125 C28.96484375 -0.03515625 28.96484375 -0.03515625 31.3984375 0.0078125 C32.60693359 0.01748047 32.60693359 0.01748047 33.83984375 0.02734375 C35.8359375 0.1953125 35.8359375 0.1953125 36.8359375 1.1953125 C36.93689314 3.84987443 36.97564748 6.47786426 36.96875 9.1328125 C36.96970673 9.9280835 36.97066345 10.72335449 36.97164917 11.54272461 C36.97233093 13.2273771 36.97047693 14.91203221 36.96630859 16.59667969 C36.96096025 19.18430447 36.96625369 21.77175566 36.97265625 24.359375 C36.97199547 25.99218789 36.9707143 27.62500066 36.96875 29.2578125 C36.97077423 30.03697021 36.97279846 30.81612793 36.97488403 31.61889648 C36.95088855 37.08036145 36.95088855 37.08036145 35.8359375 38.1953125 C33.3359375 38.3203125 33.3359375 38.3203125 30.8359375 38.1953125 C29.18514308 36.54451808 29.61044303 34.55795071 29.51953125 32.28515625 C29.47763672 31.29580078 29.43574219 30.30644531 29.39257812 29.28710938 C29.35326172 28.24619141 29.31394531 27.20527344 29.2734375 26.1328125 C29.23025391 25.08802734 29.18707031 24.04324219 29.14257812 22.96679688 C29.03612525 20.37644366 28.9341099 17.78599064 28.8359375 15.1953125 C28.34222656 16.41089844 27.84851563 17.62648437 27.33984375 18.87890625 C26.69284041 20.4635956 26.0456978 22.04822809 25.3984375 23.6328125 C25.07294922 24.43525391 24.74746094 25.23769531 24.41210938 26.06445312 C24.09951172 26.82822266 23.78691406 27.59199219 23.46484375 28.37890625 C23.17681885 29.08587646 22.88879395 29.79284668 22.59204102 30.52124023 C21.8359375 32.1953125 21.8359375 32.1953125 20.8359375 33.1953125 C17.84252692 33.53881863 15.73174906 33.75176256 12.8359375 33.1953125 C7.91653089 28.27590589 6.16172483 20.6198234 3.8359375 14.1953125 C3.81088135 14.88681396 3.7858252 15.57831543 3.76000977 16.29077148 C3.64441589 19.40499116 3.52152508 22.51888039 3.3984375 25.6328125 C3.35912109 26.72142578 3.31980469 27.81003906 3.27929688 28.93164062 C3.23740234 29.96611328 3.19550781 31.00058594 3.15234375 32.06640625 C3.11568604 33.02474365 3.07902832 33.98308105 3.04125977 34.97045898 C2.8359375 37.1953125 2.8359375 37.1953125 1.8359375 38.1953125 C-0.6640625 38.3203125 -0.6640625 38.3203125 -3.1640625 38.1953125 C-5.15791029 36.20146471 -4.32800204 32.24226238 -4.33203125 29.51171875 C-4.33702385 28.35566383 -4.33702385 28.35566383 -4.34211731 27.17625427 C-4.3471896 25.54288329 -4.34952554 23.9095019 -4.34936523 22.27612305 C-4.3515503 19.77179951 -4.36969845 17.26791729 -4.38867188 14.76367188 C-4.39160597 13.17968901 -4.39359066 11.59570405 -4.39453125 10.01171875 C-4.40171677 9.2595961 -4.40890228 8.50747345 -4.41630554 7.7325592 C-4.38393587 0.39566208 -4.38393587 0.39566208 0 0 Z " fill="#8D0304" transform="translate(326.1640625,117.8046875)"/>
<path d="M0 0 C3.625 0.5 3.625 0.5 5.67456055 3.13647461 C8.81665577 8.55500583 11.07505288 14.27158606 13.4375 20.0625 C13.95739364 21.29374172 14.47757364 22.52486256 14.99804688 23.75585938 C15.47951172 24.93083984 15.96097656 26.10582031 16.45703125 27.31640625 C16.89764893 28.38318604 17.3382666 29.44996582 17.79223633 30.54907227 C18.67989051 33.69450648 18.55535816 35.40583536 17.625 38.5 C15.315 38.17 13.005 37.84 10.625 37.5 C7.325 29.25 4.025 21 0.625 12.5 C-1.025 16.13 -2.675 19.76 -4.375 23.5 C-2.395 23.5 -0.415 23.5 1.625 23.5 C3.0856285 26.14738916 3.625 27.39448334 3.625 30.5 C2.86574219 30.50257813 2.10648438 30.50515625 1.32421875 30.5078125 C-1.6839471 30.62486175 -4.44088877 30.81522958 -7.375 31.5 C-9.62948722 34.3367951 -9.62948722 34.3367951 -10.375 37.5 C-11.375 38.5 -11.375 38.5 -14.4375 38.5625 C-15.406875 38.541875 -16.37625 38.52125 -17.375 38.5 C-18.65627518 35.53801807 -18.30825965 34.28605156 -17.3269043 31.14013672 C-16.79623084 29.81516337 -16.25285836 28.49522993 -15.69921875 27.1796875 C-15.27138847 26.12988205 -15.27138847 26.12988205 -14.83491516 25.05886841 C-14.23062174 23.58247101 -13.62088309 22.10829225 -13.00610352 20.63623047 C-12.06498856 18.38096354 -11.14154014 16.11908037 -10.22070312 13.85546875 C-9.63123366 12.4214531 -9.04077221 10.98784473 -8.44921875 9.5546875 C-8.17204514 8.87759735 -7.89487152 8.2005072 -7.60929871 7.50289917 C-4.75672554 0.70470008 -4.75672554 0.70470008 0 0 Z " fill="#890607" transform="translate(143.375,117.5)"/>
<path d="M0 0 C3.45059408 2.46438766 4.64142514 6.38930988 6.171875 10.1875 C6.45855042 10.88641357 6.74522583 11.58532715 7.04058838 12.30541992 C7.64270069 13.77985639 8.24090637 15.25589347 8.83544922 16.73339844 C9.74875777 18.9969213 10.68015853 21.2523974 11.61328125 23.5078125 C12.1964203 24.94225848 12.77848865 26.3771403 13.359375 27.8125 C13.63948425 28.48756592 13.91959351 29.16263184 14.20819092 29.8581543 C16.114754 34.65573801 16.114754 34.65573801 15 38 C12.1875 38.25 12.1875 38.25 9 38 C6.61061843 35.37825042 5.26688098 32.61132973 3.95703125 29.33984375 C3.60576172 28.46392578 3.25449219 27.58800781 2.89257812 26.68554688 C2.53615234 25.77869141 2.17972656 24.87183594 1.8125 23.9375 C1.26045898 22.57141602 1.26045898 22.57141602 0.69726562 21.17773438 C-2 14.38703038 -2 14.38703038 -2 11 C-2.66 11 -3.32 11 -4 11 C-4.103125 11.680625 -4.20625 12.36125 -4.3125 13.0625 C-5.14725019 16.62915989 -6.49472754 19.66222194 -8 23 C-6.576875 22.9071875 -6.576875 22.9071875 -5.125 22.8125 C-4.09375 22.874375 -3.0625 22.93625 -2 23 C0 26 0 26 0 30 C-0.75925781 30.00257813 -1.51851563 30.00515625 -2.30078125 30.0078125 C-5.3089471 30.12486175 -8.06588877 30.31522958 -11 31 C-13.25448722 33.8367951 -13.25448722 33.8367951 -14 37 C-15 38 -15 38 -18.0625 38.0625 C-19.031875 38.041875 -20.00125 38.02125 -21 38 C-22.39233199 33.82300404 -20.73380389 31.17426425 -19.10546875 27.3046875 C-18.79805252 26.55663849 -18.49063629 25.80858948 -18.17390442 25.03787231 C-17.52181802 23.45742615 -16.86500783 21.878922 -16.20385742 20.30224609 C-15.19052586 17.8822263 -14.19482203 15.45550097 -13.20117188 13.02734375 C-12.56614159 11.49436151 -11.93010766 9.96179456 -11.29296875 8.4296875 C-10.99392136 7.70055145 -10.69487396 6.97141541 -10.38676453 6.22018433 C-7.89826518 0.32800159 -6.41498349 -0.52367212 0 0 Z " fill="#870607" transform="translate(296,118)"/>
<path d="M0 0 C2.31 0 4.62 0 7 0 C7 4.95 7 9.9 7 15 C13.043434 14.70757243 13.043434 14.70757243 15.3359375 10.83984375 C16.03687259 9.55038768 16.71608275 8.2489248 17.375 6.9375 C17.72949219 6.27427734 18.08398438 5.61105469 18.44921875 4.92773438 C19.31839739 3.29508801 20.16179133 1.64876071 21 0 C23.31 0 25.62 0 28 0 C28.33 0.99 28.66 1.98 29 3 C27.36546381 6.01703505 25.60092531 8.86659353 23.71679688 11.73046875 C21.40580425 15.39068216 21.40580425 15.39068216 21.5234375 19.56640625 C22.25433594 20.77103516 22.25433594 20.77103516 23 22 C23.58136719 22.98097656 24.16273438 23.96195313 24.76171875 24.97265625 C26.04893064 27.03793942 27.34062648 29.10043446 28.63671875 31.16015625 C30 34 30 34 29.70703125 36.37109375 C29.47371094 36.90863281 29.24039063 37.44617188 29 38 C26.25 38.3125 26.25 38.3125 23 38 C20.61136234 35.76065219 19.18543275 33.34225588 17.6328125 30.4765625 C17.13523438 29.57679688 16.63765625 28.67703125 16.125 27.75 C15.67382812 26.87859375 15.22265625 26.0071875 14.7578125 25.109375 C13.09265816 22.68908811 13.09265816 22.68908811 9.8046875 22.203125 C8.87914062 22.13609375 7.95359375 22.0690625 7 22 C7.01160156 23.07121094 7.02320313 24.14242187 7.03515625 25.24609375 C7.04453299 26.64322743 7.05363331 28.04036299 7.0625 29.4375 C7.07087891 30.14455078 7.07925781 30.85160156 7.08789062 31.58007812 C7.09653588 33.38693559 7.05220011 35.19387603 7 37 C6 38 6 38 3.5 38.125 C1 38 1 38 0 37 C-0.08858646 34.26105915 -0.11523479 31.5474673 -0.09765625 28.80859375 C-0.0962413 27.98875504 -0.09482635 27.16891632 -0.09336853 26.32423401 C-0.08775289 23.69528618 -0.07519779 21.06642227 -0.0625 18.4375 C-0.05748701 16.65950643 -0.05292376 14.88151154 -0.04882812 13.10351562 C-0.03777839 8.73564455 -0.02050331 4.36783652 0 0 Z " fill="#890405" transform="translate(190,118)"/>
<path d="M0 0 C2.64 0 5.28 0 8 0 C9.33838733 2.45570175 10.67086232 4.91429916 12 7.375 C12.3815625 8.07367188 12.763125 8.77234375 13.15625 9.4921875 C16 14.7734375 16 14.7734375 16 17 C16.66 17 17.32 17 18 17 C18.26683594 16.29359375 18.53367188 15.5871875 18.80859375 14.859375 C20.05482596 11.86841769 21.50135246 9.08845007 23.0625 6.25 C23.58972656 5.28578125 24.11695313 4.3215625 24.66015625 3.328125 C26 1 26 1 27 0 C29.33297433 -0.04092937 31.66705225 -0.04241723 34 0 C33.60863337 6.08575103 30.66632731 10.12340974 27.5 15.125 C22.99232238 22.50618847 20.24124879 28.15966613 21 37 C18.36 37 15.72 37 13 37 C12.99814697 36.26789307 12.99629395 35.53578613 12.99438477 34.78149414 C12.67394563 26.29358302 10.28089623 20.64009192 5.9375 13.4375 C4.81650206 11.52251488 3.70036407 9.60467392 2.58984375 7.68359375 C2.09347412 6.85400146 1.59710449 6.02440918 1.08569336 5.16967773 C0 3 0 3 0 0 Z " fill="#82080A" transform="translate(230,118)"/>
<path d="M0 0 C3 0.125 3 0.125 4 1.125 C4.10095564 3.77956193 4.13970998 6.40755176 4.1328125 9.0625 C4.13376923 9.857771 4.13472595 10.65304199 4.13571167 11.47241211 C4.13639343 13.1570646 4.13453943 14.84171971 4.13037109 16.52636719 C4.12502275 19.11399197 4.13031619 21.70144316 4.13671875 24.2890625 C4.13605797 25.92187539 4.1347768 27.55468816 4.1328125 29.1875 C4.13483673 29.96665771 4.13686096 30.74581543 4.13894653 31.54858398 C4.11495105 37.01004895 4.11495105 37.01004895 3 38.125 C0.66055264 37.83769945 -1.6739143 37.50563221 -4 37.125 C-4.0246501 32.01636104 -4.04283607 26.90775641 -4.05493164 21.79907227 C-4.05997204 20.05980832 -4.0668043 18.32054864 -4.07543945 16.58129883 C-4.08751792 14.08674063 -4.09323108 11.59223827 -4.09765625 9.09765625 C-4.10281754 8.31536148 -4.10797882 7.53306671 -4.11329651 6.72706604 C-4.11349226 4.85932886 -4.06199694 2.99170796 -4 1.125 C-3 0.125 -3 0.125 0 0 Z " fill="#880707" transform="translate(176,117.875)"/>
<path d="M0 0 C2 1 2 1 2 1 Z M-31 1 C-20.77 1 -10.54 1 0 1 C0.66 2.98 1.32 4.96 2 7 C7.94 7.99 7.94 7.99 14 9 C14.66 7.68 15.32 6.36 16 5 C16 7.31 16 9.62 16 12 C0.26869872 8.93071851 -15.39308808 5.6510829 -31 2 C-31 1.67 -31 1.34 -31 1 Z " fill="#555353" transform="translate(170,225)"/>
<path d="M0 0 C1.65 0 3.3 0 5 0 C6.32 2.31 7.64 4.62 9 7 C9.33 4.69 9.66 2.38 10 0 C11.32 0 12.64 0 14 0 C14 4.62 14 9.24 14 14 C12.02 14.99 12.02 14.99 10 16 C7.38472619 13.63379989 5.73559438 11.057952 4 8 C3.67 10.31 3.34 12.62 3 15 C2.01 15.33 1.02 15.66 0 16 C0 10.72 0 5.44 0 0 Z " fill="#565656" transform="translate(315,167)"/>
<path d="M0 0 C0.886875 -0.01675781 1.77375 -0.03351563 2.6875 -0.05078125 C3.8321875 0.12904297 3.8321875 0.12904297 5 0.3125 C7.18085057 3.58377586 7.24887859 4.58626723 7.1875 8.375 C7.17783203 9.69177734 7.17783203 9.69177734 7.16796875 11.03515625 C7 13.3125 7 13.3125 6 15.3125 C4.0390625 15.76171875 4.0390625 15.76171875 1.625 16 C0.83351562 16.08636719 0.04203125 16.17273438 -0.7734375 16.26171875 C-3 16.3125 -3 16.3125 -6 15.3125 C-7.30089831 12.71070337 -7.16840078 10.7155812 -7.1875 7.8125 C-7.20167969 6.8328125 -7.21585938 5.853125 -7.23046875 4.84375 C-6.79279302 0.03673516 -4.19905349 0.01830983 0 0 Z M-3 4.3125 C-3 6.9525 -3 9.5925 -3 12.3125 C-1.02 12.3125 0.96 12.3125 3 12.3125 C3 9.6725 3 7.0325 3 4.3125 C1.02 4.3125 -0.96 4.3125 -3 4.3125 Z " fill="#555555" transform="translate(169,166.6875)"/>
<path d="M0 0 C1.79093191 -0.08086147 3.58289628 -0.13912702 5.375 -0.1875 C6.87160156 -0.23970703 6.87160156 -0.23970703 8.3984375 -0.29296875 C9.25695312 -0.19628906 10.11546875 -0.09960938 11 0 C13.37550396 3.56325594 12.87252425 4.9800213 12.2265625 9.05859375 C11.97005688 11.25658154 12.22327081 12.92872216 13 15 C11.68 15 10.36 15 9 15 C7.95107762 13.36368108 6.95093297 11.69514137 6 10 C5.01 9.67 4.02 9.34 3 9 C3 11.31 3 13.62 3 16 C2.01 16 1.02 16 0 16 C0 12.7 0 9.4 0 6 C2.97 6 5.94 6 9 6 C9 5.34 9 4.68 9 4 C6.03 4 3.06 4 0 4 C0 2.68 0 1.36 0 0 Z " fill="#535353" transform="translate(182,167)"/>
<path d="M0 0 C0 0.99 0 1.98 0 3 C-2.046875 4.7890625 -2.046875 4.7890625 -4.75 6.625 C-5.63171875 7.23601562 -6.5134375 7.84703125 -7.421875 8.4765625 C-9.73591767 9.84395135 -11.35467351 10.66933419 -14 11 C-16.75 10.0625 -16.75 10.0625 -19 9 C-19.33 9.99 -19.66 10.98 -20 12 C-20.66 11.34 -21.32 10.68 -22 10 C-24.06874034 9.3574765 -24.06874034 9.3574765 -26 9 C-26 9.99 -26 10.98 -26 12 C-26.66 12 -27.32 12 -28 12 C-28 11.34 -28 10.68 -28 10 C-29.32 9.67 -30.64 9.34 -32 9 C-28.24960933 7.70852528 -24.49593907 6.42712927 -20.73901367 5.15478516 C-18.83658434 4.50818581 -16.93682413 3.85375058 -15.03710938 3.19921875 C-13.83505859 2.79316406 -12.63300781 2.38710937 -11.39453125 1.96875 C-9.73707886 1.40317383 -9.73707886 1.40317383 -8.04614258 0.82617188 C-5.19168408 0.05198837 -2.93544395 -0.17197068 0 0 Z " fill="#8A0507" transform="translate(232,232)"/>
<path d="M0 0 C2.3828125 -0.29296875 2.3828125 -0.29296875 5.125 -0.1875 C6.03507813 -0.16042969 6.94515625 -0.13335937 7.8828125 -0.10546875 C8.58148438 -0.07066406 9.28015625 -0.03585938 10 0 C10 1.32 10 2.64 10 4 C7.36 4 4.72 4 2 4 C2 4.66 2 5.32 2 6 C4.64 6 7.28 6 10 6 C11.125 12.75 11.125 12.75 10 15 C6.04 15 2.08 15 -2 15 C-1.67 14.01 -1.34 13.02 -1 12 C1.64 12 4.28 12 7 12 C7 11.01 7 10.02 7 9 C4.36 9 1.72 9 -1 9 C-1.625 6.1875 -1.625 6.1875 -2 3 C-1.34 2.01 -0.68 1.02 0 0 Z " fill="#555555" transform="translate(222,167)"/>
<path d="M0 0 C2.3828125 -0.29296875 2.3828125 -0.29296875 5.125 -0.1875 C6.03507812 -0.16042969 6.94515625 -0.13335937 7.8828125 -0.10546875 C8.58148438 -0.07066406 9.28015625 -0.03585938 10 0 C9.67 1.32 9.34 2.64 9 4 C6.69 4 4.38 4 2 4 C2 4.66 2 5.32 2 6 C4.64 6 7.28 6 10 6 C11.125 12.75 11.125 12.75 10 15 C6.04 15 2.08 15 -2 15 C-1.67 14.01 -1.34 13.02 -1 12 C1.64 12 4.28 12 7 12 C7 11.01 7 10.02 7 9 C4.36 9 1.72 9 -1 9 C-1.625 6.1875 -1.625 6.1875 -2 3 C-1.34 2.01 -0.68 1.02 0 0 Z " fill="#535353" transform="translate(253,167)"/>
<path d="M0 0 C1.51400391 0.01740234 1.51400391 0.01740234 3.05859375 0.03515625 C4.07050781 0.04417969 5.08242187 0.05320313 6.125 0.0625 C7.29869141 0.07990234 7.29869141 0.07990234 8.49609375 0.09765625 C8.16609375 1.41765625 7.83609375 2.73765625 7.49609375 4.09765625 C5.18609375 4.09765625 2.87609375 4.09765625 0.49609375 4.09765625 C0.49609375 4.75765625 0.49609375 5.41765625 0.49609375 6.09765625 C2.19765625 6.06671875 2.19765625 6.06671875 3.93359375 6.03515625 C7.49609375 6.09765625 7.49609375 6.09765625 8.49609375 7.09765625 C8.62109375 10.59765625 8.62109375 10.59765625 8.49609375 14.09765625 C7.49609375 15.09765625 7.49609375 15.09765625 4.9921875 15.1953125 C3.47818359 15.17791016 3.47818359 15.17791016 1.93359375 15.16015625 C0.92167969 15.15113281 -0.09023437 15.14210937 -1.1328125 15.1328125 C-1.91527344 15.12121094 -2.69773437 15.10960937 -3.50390625 15.09765625 C-3.50390625 14.10765625 -3.50390625 13.11765625 -3.50390625 12.09765625 C-0.53390625 12.09765625 2.43609375 12.09765625 5.49609375 12.09765625 C5.16609375 11.43765625 4.83609375 10.77765625 4.49609375 10.09765625 C2.16893375 9.72364839 -0.16508487 9.39000892 -2.50390625 9.09765625 C-3.50390625 8.09765625 -3.50390625 8.09765625 -3.62890625 4.59765625 C-3.469537 0.13531736 -3.469537 0.13531736 0 0 Z " fill="#545454" transform="translate(128.50390625,166.90234375)"/>
<path d="M0 0 C0.66 0 1.32 0 2 0 C2 0.99 2 1.98 2 3 C3.32 3 4.64 3 6 3 C6.33 3.99 6.66 4.98 7 6 C7.66 6.33 8.32 6.66 9 7 C8.34 12.28 7.68 17.56 7 23 C5.35 22.67 3.7 22.34 2 22 C1.67 16.72 1.34 11.44 1 6 C0.34 6 -0.32 6 -1 6 C-1.625 4.125 -1.625 4.125 -2 2 C-1.34 1.34 -0.68 0.68 0 0 Z " fill="#8C0202" transform="translate(242,132)"/>
<path d="M0 0 C1.97909398 -0.02686553 3.95828971 -0.04633375 5.9375 -0.0625 C7.03964844 -0.07410156 8.14179688 -0.08570313 9.27734375 -0.09765625 C12 0 12 0 13 1 C13.125 4.5 13.125 4.5 13 8 C12 9 12 9 10.15234375 9.09765625 C8.1015625 9.06510417 6.05078125 9.03255208 4 9 C4 10.98 4 12.96 4 15 C2.68 15 1.36 15 0 15 C0 12.03 0 9.06 0 6 C4.455 5.505 4.455 5.505 9 5 C6.36 4.67 3.72 4.34 1 4 C0.67 2.68 0.34 1.36 0 0 Z " fill="#545454" transform="translate(143,167)"/>
<path d="M0 0 C3.63 0 7.26 0 11 0 C10.67 1.32 10.34 2.64 10 4 C7.36 4 4.72 4 2 4 C2.33 6.31 2.66 8.62 3 11 C5.64 11.33 8.28 11.66 11 12 C10.67 13.32 10.34 14.64 10 16 C2.31204874 16.29569043 2.31204874 16.29569043 -1 14 C-1.6796875 12.01171875 -1.6796875 12.01171875 -1.875 9.6875 C-1.95492188 8.92824219 -2.03484375 8.16898438 -2.1171875 7.38671875 C-2 5 -2 5 0 0 Z " fill="#535353" transform="translate(336,167)"/>
<path d="M0 0 C3.63 0 7.26 0 11 0 C10.67 1.32 10.34 2.64 10 4 C7.36 4 4.72 4 2 4 C2.33 6.31 2.66 8.62 3 11 C5.64 11.33 8.28 11.66 11 12 C10.67 13.32 10.34 14.64 10 16 C2.31204874 16.29569043 2.31204874 16.29569043 -1 14 C-1.6796875 12.01171875 -1.6796875 12.01171875 -1.875 9.6875 C-1.95492188 8.92824219 -2.03484375 8.16898438 -2.1171875 7.38671875 C-2 5 -2 5 0 0 Z " fill="#535353" transform="translate(271,167)"/>
<path d="M0 0 C1.65 0 3.3 0 5 0 C5.309375 0.78375 5.61875 1.5675 5.9375 2.375 C6.92875038 4.92330128 6.92875038 4.92330128 8 7 C8.66 7 9.32 7 10 7 C10.53293835 8.74635165 11.05090663 10.49727652 11.5625 12.25 C11.85253906 13.22453125 12.14257812 14.1990625 12.44140625 15.203125 C12.99249836 17.96243932 12.93789609 19.3912824 12 22 C11.01 22 10.02 22 9 22 C0 4.66393443 0 4.66393443 0 0 Z " fill="#8C0302" transform="translate(147,132)"/>
<path d="M0 0 C3 2 3 2 4 5 C4.99 3.35 5.98 1.7 7 0 C10 2 10 2 11 5 C11.268125 4.360625 11.53625 3.72125 11.8125 3.0625 C13 1 13 1 16 0 C15.55966813 5.19591612 15.11696661 8.66335081 12 13 C10.29159719 11.36587557 9.06546953 10.13093906 8 8 C6.515 10.475 6.515 10.475 5 13 C1.50071836 10.66714557 1.3670902 9.79204931 0.3125 5.875 C0.06113281 4.96492188 -0.19023437 4.05484375 -0.44921875 3.1171875 C-0.72185547 2.06917969 -0.72185547 2.06917969 -1 1 C-0.67 0.67 -0.34 0.34 0 0 Z " fill="#0B0B0B" transform="translate(255,365)"/>
<path d="M0 0 C1.80125336 2.70188004 3.00243753 4.93057703 4 8 C3.67 8.99 3.34 9.98 3 11 C2.34 10.34 1.68 9.68 1 9 C1 11.31 1 13.62 1 16 C1.99 16 2.98 16 4 16 C4 16.66 4 17.32 4 18 C3.34 18 2.68 18 2 18 C2 19.65 2 21.3 2 23 C2.99 23.33 3.98 23.66 5 24 C5 24.66 5 25.32 5 26 C6.65 26.33 8.3 26.66 10 27 C10 26.01 10 25.02 10 24 C10.66 24 11.32 24 12 24 C11.67 23.01 11.34 22.02 11 21 C11.99 21 12.98 21 14 21 C14.66 19.68 15.32 18.36 16 17 C15.39301257 21.12751449 13.96189209 24.3321148 12 28 C10.7625 28.12375 9.525 28.2475 8.25 28.375 C7.55390625 28.44460937 6.8578125 28.51421875 6.140625 28.5859375 C4 28 4 28 1.90625 25.4375 C-0.05967349 21.89239206 -1.44728652 18.46076746 -2.75 14.625 C-3.17796875 13.37976563 -3.6059375 12.13453125 -4.046875 10.8515625 C-4.36140625 9.91054687 -4.6759375 8.96953125 -5 8 C-3.68 7.67 -2.36 7.34 -1 7 C-1 6.01 -1 5.02 -1 4 C-0.6937566 2.66018514 -0.36548445 1.32488113 0 0 Z " fill="#7F0B0C" transform="translate(335,123)"/>
<path d="M0 0 C0.33 0.99 0.66 1.98 1 3 C0.01 3.495 0.01 3.495 -1 4 C-1.68729254 6.11846285 -1.68729254 6.11846285 -2.125 8.5625 C-2.29257813 9.38878906 -2.46015625 10.21507812 -2.6328125 11.06640625 C-2.75398437 11.70449219 -2.87515625 12.34257812 -3 13 C-1.02 12.34 0.96 11.68 3 11 C3.66 12.65 4.32 14.3 5 16 C1.04 16 -2.92 16 -7 16 C-7.33 15.01 -7.66 14.02 -8 13 C-8.66 13 -9.32 13 -10 13 C-9.5205537 8.78087253 -8.83374881 6.20336822 -6 3 C-5.34 3.33 -4.68 3.66 -4 4 C-3.67 3.01 -3.34 2.02 -3 1 C-2.01 0.67 -1.02 0.34 0 0 Z " fill="#8A0201" transform="translate(141,131)"/>
<path d="M0 0 C3.22292394 1.47165477 5.84726712 3.30754194 8.625 5.5 C9.40101563 6.1084375 10.17703125 6.716875 10.9765625 7.34375 C13 9 13 9 15 11 C15.25 14 15.25 14 15 17 C13 19 13 19 10.1875 19.4375 C6.02289871 18.86588806 4.66580904 17.13624593 2 14 C3.875 13.375 3.875 13.375 6 13 C6.66 13.66 7.32 14.32 8 15 C7.67 15.66 7.34 16.32 7 17 C8.65 17 10.3 17 12 17 C12.33 16.01 12.66 15.02 13 14 C12.01 14 11.02 14 10 14 C9.7525 13.21625 9.505 12.4325 9.25 11.625 C7.84610901 8.67682892 6.99324263 8.0975223 4 7 C3.01 7.99 2.02 8.98 1 10 C-0.08209949 6.75370153 0.21859125 6.12563502 1 3 C0.67 2.01 0.34 1.02 0 0 Z " fill="#880506" transform="translate(264,276)"/>
<path d="M0 0 C4.62 0 9.24 0 14 0 C13.67 1.32 13.34 2.64 13 4 C11.68 4 10.36 4 9 4 C9 7.63 9 11.26 9 15 C7.68 15 6.36 15 5 15 C5 11.37 5 7.74 5 4 C3.35 3.67 1.7 3.34 0 3 C0 2.01 0 1.02 0 0 Z " fill="#545454" transform="translate(201,167)"/>
<path d="M0 0 C3.96 0 7.92 0 12 0 C12 0.99 12 1.98 12 3 C9.36 3 6.72 3 4 3 C4 3.66 4 4.32 4 5 C6.64 5 9.28 5 12 5 C12 6.32 12 7.64 12 9 C8.37 9 4.74 9 1 9 C-0.4783226 6.04335481 -0.06032783 3.25770263 0 0 Z " fill="#525252" transform="translate(297,173)"/>
<path d="M0 0 C3.63 0 7.26 0 11 0 C11 0.99 11 1.98 11 3 C8.36 3 5.72 3 3 3 C3 3.66 3 4.32 3 5 C5.64 5 8.28 5 11 5 C11.33 6.32 11.66 7.64 12 9 C8.37 9 4.74 9 1 9 C-1 5 -1 5 0 0 Z " fill="#535353" transform="translate(353,173)"/>
<path d="M0 0 C0.33 0.66 0.66 1.32 1 2 C0.0625 4.625 0.0625 4.625 -1 7 C0.98 7 2.96 7 5 7 C6.4606285 9.64738916 7 10.89448334 7 14 C6.24074219 14.00257813 5.48148438 14.00515625 4.69921875 14.0078125 C1.6910529 14.12486175 -1.06588877 14.31522958 -4 15 C-6.25448722 17.8367951 -6.25448722 17.8367951 -7 21 C-8 22 -8 22 -11.0625 22.0625 C-12.031875 22.041875 -13.00125 22.02125 -14 22 C-15.37095624 18.30962722 -14.60010967 16.29116165 -13.0625 12.75 C-12.68222656 11.85796875 -12.30195312 10.9659375 -11.91015625 10.046875 C-11.60980469 9.37140625 -11.30945313 8.6959375 -11 8 C-9.87622303 11.30435084 -10.10445258 13.0506862 -11.4375 16.25 C-11.72496094 16.95640625 -12.01242188 17.6628125 -12.30859375 18.390625 C-12.53675781 18.92171875 -12.76492187 19.4528125 -13 20 C-11.35 19.67 -9.7 19.34 -8 19 C-7.67 16.69 -7.34 14.38 -7 12 C-3.04 12 0.92 12 5 12 C4.67 10.68 4.34 9.36 4 8 C2.02 8.66 0.04 9.32 -2 10 C-1.85950482 8.52031676 -1.71245174 7.04125484 -1.5625 5.5625 C-1.48128906 4.73878906 -1.40007812 3.91507813 -1.31640625 3.06640625 C-1 1 -1 1 0 0 Z " fill="#7D0F14" transform="translate(140,134)"/>
<path d="M0 0 C0.33 0 0.66 0 1 0 C1 11.22 1 22.44 1 34 C2.32 34 3.64 34 5 34 C5 27.07 5 20.14 5 13 C5.66 12.67 6.32 12.34 7 12 C7.02887236 15.81248426 7.04675492 19.6249407 7.0625 23.4375 C7.07087891 24.52611328 7.07925781 25.61472656 7.08789062 26.73632812 C7.09111328 27.77080078 7.09433594 28.80527344 7.09765625 29.87109375 C7.10289307 30.82943115 7.10812988 31.78776855 7.11352539 32.77514648 C7 35 7 35 6 36 C3.5 36.125 3.5 36.125 1 36 C0 35 0 35 -0.11352539 31.67358398 C-0.11336629 30.19774444 -0.10767314 28.72189931 -0.09765625 27.24609375 C-0.09553383 26.08292381 -0.09553383 26.08292381 -0.09336853 24.89625549 C-0.08775345 22.40996506 -0.07519846 19.9237634 -0.0625 17.4375 C-0.05748694 15.75586067 -0.0529237 14.07421994 -0.04882812 12.39257812 C-0.03777913 8.26168434 -0.02050445 4.13085724 0 0 Z " fill="#7B1313" transform="translate(322,120)"/>
<path d="M0 0 C2.31 0 4.62 0 7 0 C7 0.33 7 0.66 7 1 C5.02 1 3.04 1 1 1 C1 11.23 1 21.46 1 32 C2.65 32 4.3 32 6 32 C6 28.7 6 25.4 6 22 C6.33 22 6.66 22 7 22 C7.02685095 24.47923801 7.04676547 26.9581884 7.0625 29.4375 C7.07087891 30.14455078 7.07925781 30.85160156 7.08789062 31.58007812 C7.09653588 33.38693559 7.05220011 35.19387603 7 37 C6 38 6 38 3.5 38.125 C1 38 1 38 0 37 C-0.08858646 34.26105915 -0.11523479 31.5474673 -0.09765625 28.80859375 C-0.0962413 27.98875504 -0.09482635 27.16891632 -0.09336853 26.32423401 C-0.08775289 23.69528618 -0.07519779 21.06642227 -0.0625 18.4375 C-0.05748701 16.65950643 -0.05292376 14.88151154 -0.04882812 13.10351562 C-0.03777839 8.73564455 -0.02050331 4.36783652 0 0 Z " fill="#840E11" transform="translate(190,118)"/>
<path d="M0 0 C-0.598125 0.433125 -1.19625 0.86625 -1.8125 1.3125 C-3.70783087 2.77461239 -5.3528593 4.27050227 -7 6 C-7.66 5.67 -8.32 5.34 -9 5 C-12.0916909 7.52956528 -12.90931332 10.22454612 -14 14 C-14.52078125 13.83628906 -15.0415625 13.67257812 -15.578125 13.50390625 C-18.6756875 12.85941341 -21.58841094 12.90588411 -24.75 12.9375 C-26.50570312 12.95103516 -26.50570312 12.95103516 -28.296875 12.96484375 C-29.18890625 12.97644531 -30.0809375 12.98804688 -31 13 C-31 12.67 -31 12.34 -31 12 C-30.36835938 11.97164063 -29.73671875 11.94328125 -29.0859375 11.9140625 C-21.44007679 11.09879781 -16.76417115 8.20296491 -10.94873047 3.45556641 C-7.16471379 0.45354334 -4.83446352 -0.57048132 0 0 Z M-17 14 C-15 15 -15 15 -15 15 Z " fill="#830708" transform="translate(252,248)"/>
<path d="M0 0 C3.625 -0.1875 3.625 -0.1875 7 0 C7.02688151 1.64574566 7.04634123 3.29161413 7.0625 4.9375 C7.07410156 5.85402344 7.08570313 6.77054687 7.09765625 7.71484375 C7 10 7 10 6 11 C3.66702567 11.04092937 1.33294775 11.04241723 -1 11 C-2.25 3.375 -2.25 3.375 0 0 Z M2 2 C2 3.32 2 4.64 2 6 C2.66 5.67 3.32 5.34 4 5 C3.67 4.01 3.34 3.02 3 2 C2.67 2 2.34 2 2 2 Z " fill="#0C0C0B" transform="translate(194,369)"/>
<path d="M0 0 C0 0.99 0 1.98 0 3 C-1.65 3 -3.3 3 -5 3 C-5.33 4.32 -5.66 5.64 -6 7 C-3.05270463 8.15811388 -3.05270463 8.15811388 0 8 C0 8.99 0 9.98 0 11 C-2.75 11.75 -2.75 11.75 -6 12 C-8.4375 10.5 -8.4375 10.5 -10 8 C-10 4.375 -10 4.375 -9 1 C-5.99969508 -1.57168993 -3.64893445 -1.0135929 0 0 Z " fill="#111111" transform="translate(299,366)"/>
<path d="M0 0 C0.66 0 1.32 0 2 0 C2.39832031 1.09699219 2.79664063 2.19398438 3.20703125 3.32421875 C3.74192112 4.77874382 4.27709225 6.23316548 4.8125 7.6875 C5.20405273 8.7693457 5.20405273 8.7693457 5.60351562 9.87304688 C6.78257446 13.06087261 7.9438029 15.90633817 9.69921875 18.83203125 C11 21 11 21 11 24 C11.99 23.67 12.98 23.34 14 23 C13.67 20.03 13.34 17.06 13 14 C15.29576678 16.29576678 16.0638375 17.90346249 17 21 C16.625 23.8125 16.625 23.8125 16 26 C13.69 25.67 11.38 25.34 9 25 C7.49451631 21.21048756 5.99654686 17.41804969 4.5 13.625 C4.07074219 12.54476562 3.64148438 11.46453125 3.19921875 10.3515625 C2.79316406 9.3203125 2.38710937 8.2890625 1.96875 7.2265625 C1.40317383 5.79691162 1.40317383 5.79691162 0.82617188 4.33837891 C0 2 0 2 0 0 Z " fill="#7B1012" transform="translate(145,130)"/>
<path d="M0 0 C14.52 0 29.04 0 44 0 C44 0.33 44 0.66 44 1 C31.79 1 19.58 1 7 1 C7 3.31 7 5.62 7 8 C1.125 3.375 1.125 3.375 0 0 Z " fill="#821311" transform="translate(95,250)"/>
<path d="M0 0 C0.66 0.33 1.32 0.66 2 1 C2 1.99 2 2.98 2 4 C3.65 4.33 5.3 4.66 7 5 C7 7.31 7 9.62 7 12 C6.01 12 5.02 12 4 12 C3.67 10.35 3.34 8.7 3 7 C2.34 8.98 1.68 10.96 1 13 C0.34 12.67 -0.32 12.34 -1 12 C-1.02687279 10.18757948 -1.04633715 8.37504767 -1.0625 6.5625 C-1.07410156 5.55316406 -1.08570313 4.54382813 -1.09765625 3.50390625 C-1 1 -1 1 0 0 Z " fill="#0D0D0D" transform="translate(222,365)"/>
<path d="M0 0 C0.99 0 1.98 0 3 0 C3 4.95 3 9.9 3 15 C1.68 15 0.36 15 -1 15 C-1.02685412 12.68756208 -1.04632841 10.3750373 -1.0625 8.0625 C-1.07410156 6.77472656 -1.08570313 5.48695313 -1.09765625 4.16015625 C-1 1 -1 1 0 0 Z " fill="#535353" transform="translate(288,167)"/>
<path d="M0 0 C0.33 1.32 0.66 2.64 1 4 C1.99 4 2.98 4 4 4 C5.32854177 9.9180497 4.66464729 12.77729131 2 18 C1.67 18 1.34 18 1 18 C1 16.02 1 14.04 1 12 C1.66 12 2.32 12 3 12 C2.67 10.68 2.34 9.36 2 8 C1.01 9.485 1.01 9.485 0 11 C-0.99 11 -1.98 11 -3 11 C-3.33 12.32 -3.66 13.64 -4 15 C-5 13 -5 13 -4.00390625 9.9609375 C-3.52824219 8.77757812 -3.05257813 7.59421875 -2.5625 6.375 C-2.08941406 5.18648438 -1.61632812 3.99796875 -1.12890625 2.7734375 C-0.75636719 1.85820313 -0.38382812 0.94296875 0 0 Z " fill="#800A0A" transform="translate(350,122)"/>
<path d="M0 0 C1.4540625 0.0309375 1.4540625 0.0309375 2.9375 0.0625 C4.29189668 2.77129335 4.00251451 5.07183268 3.9375 8.0625 C0.64773192 9.15908936 -0.77553767 8.86203138 -4.0625 8.0625 C-4.10491723 5.72955225 -4.10342937 3.39547433 -4.0625 1.0625 C-3.0625 0.0625 -3.0625 0.0625 0 0 Z " fill="#111111" transform="translate(305.0625,368.9375)"/>
<path d="M0 0 C0.33 0.66 0.66 1.32 1 2 C0.0390625 3.9453125 0.0390625 3.9453125 -1.375 6.125 C-1.83648437 6.84945312 -2.29796875 7.57390625 -2.7734375 8.3203125 C-3.17820312 8.87460938 -3.58296875 9.42890625 -4 10 C-4.33 10 -4.66 10 -5 10 C-5.33 7.69 -5.66 5.38 -6 3 C-6.56847656 3.144375 -7.13695312 3.28875 -7.72265625 3.4375 C-12.62262205 4.61545505 -16.9645312 5.21427527 -22 5 C-22 4.67 -22 4.34 -22 4 C-11.11 2.02 -11.11 2.02 0 0 Z " fill="#7E0A0C" transform="translate(410,220)"/>
<path d="M0 0 C3.27212129 2.68077407 4.64584614 6.19986853 6.25 10 C6.53101563 10.6290625 6.81203125 11.258125 7.1015625 11.90625 C9.12326067 16.630218 9.12326067 16.630218 8 20 C7.34 19.67 6.68 19.34 6 19 C5.375 16.4375 5.375 16.4375 5 14 C3.35 13.67 1.7 13.34 0 13 C-0.06919031 10.50914896 -0.09591102 8.35167374 0.5625 5.9375 C1.08042477 3.64383315 0.7116378 2.21398425 0 0 Z " fill="#81090A" transform="translate(147,119)"/>
<path d="M0 0 C1.2065625 0.0309375 1.2065625 0.0309375 2.4375 0.0625 C3.5625 2.3125 3.5625 2.3125 4.4375 5.0625 C3.5625 7.375 3.5625 7.375 2.4375 9.0625 C-2.3125 8.3125 -2.3125 8.3125 -4.5625 6.0625 C-3.83457637 0.09352625 -3.83457637 0.09352625 0 0 Z " fill="#101010" transform="translate(207.5625,368.9375)"/>
<path d="M0 0 C0.33 0 0.66 0 1 0 C1 5.61 1 11.22 1 17 C2.98 17 4.96 17 7 17 C7.042721 18.66611905 7.04063832 20.33382885 7 22 C6 23 6 23 3.5 23.125 C1 23 1 23 0 22 C-0.08700342 20.36527118 -0.10701063 18.72685945 -0.09765625 17.08984375 C-0.09443359 16.10048828 -0.09121094 15.11113281 -0.08789062 14.09179688 C-0.07951172 13.05087891 -0.07113281 12.00996094 -0.0625 10.9375 C-0.05798828 9.89271484 -0.05347656 8.84792969 -0.04882812 7.77148438 C-0.03699913 5.1809334 -0.02051689 2.59049441 0 0 Z " fill="#810D0D" transform="translate(356,133)"/>
<path d="M0 0 C1.98 0 3.96 0 6 0 C7.1875 2.25 7.1875 2.25 8 5 C6.625 7.3125 6.625 7.3125 5 9 C0.125 8.125 0.125 8.125 -1 7 C-0.71269945 4.66055264 -0.38063221 2.3260857 0 0 Z M3 2 C2.67 3.32 2.34 4.64 2 6 C2.99 5.67 3.98 5.34 5 5 C4.67 4.01 4.34 3.02 4 2 C3.67 2 3.34 2 3 2 Z " fill="#101010" transform="translate(183,369)"/>
<path d="M0 0 C1.2065625 0.0309375 1.2065625 0.0309375 2.4375 0.0625 C3.03482819 2.82514289 3.4375 5.22282769 3.4375 8.0625 C1.125 8.75 1.125 8.75 -1.5625 9.0625 C-3.4375 7.9375 -3.4375 7.9375 -4.5625 6.0625 C-3.99439756 0.09742433 -3.99439756 0.09742433 0 0 Z " fill="#1C1C1C" transform="translate(277.5625,368.9375)"/>
<path d="M0 0 C1.2065625 0.0309375 1.2065625 0.0309375 2.4375 0.0625 C3.03482819 2.82514289 3.4375 5.22282769 3.4375 8.0625 C1.125 8.75 1.125 8.75 -1.5625 9.0625 C-3.4375 7.9375 -3.4375 7.9375 -4.5625 6.0625 C-3.99439756 0.09742433 -3.99439756 0.09742433 0 0 Z " fill="#121212" transform="translate(235.5625,368.9375)"/>
<path d="M0 0 C2.33294775 -0.04241723 4.66702567 -0.04092937 7 0 C8 1 8 1 8.09765625 2.84765625 C8.04882812 5.92382812 8.04882812 5.92382812 8 9 C7.01 8.67 6.02 8.34 5 8 C4.67 6.35 4.34 4.7 4 3 C3.34 4.98 2.68 6.96 2 9 C1.34 8.67 0.68 8.34 0 8 C0 5.36 0 2.72 0 0 Z " fill="#111111" transform="translate(311,369)"/>
<path d="M0 0 C0.33 0 0.66 0 1 0 C0.54177532 3.46941546 0.10868317 6.67395049 -1 10 C2.057952 8.26440562 4.63379989 6.61527381 7 4 C5.25 10.75 5.25 10.75 3 13 C-0.125 13.125 -0.125 13.125 -3 13 C-4.23593891 9.29218328 -3.5678132 8.32489747 -2.0625 4.8125 C-1.68222656 3.91144531 -1.30195313 3.01039063 -0.91015625 2.08203125 C-0.60980469 1.39496094 -0.30945313 0.70789063 0 0 Z " fill="#7D0A0E" transform="translate(278,143)"/>
<path d="M0 0 C12.28609865 -1.0735426 12.28609865 -1.0735426 16.48828125 1.55859375 C18.17360652 3.29276903 19.64324765 5.00057548 21 7 C20.67 7.66 20.34 8.32 20 9 C19.21625 8.01 18.4325 7.02 17.625 6 C15.4969113 3.82075533 14.42157579 3.06398918 11.375 2.6015625 C8.89243922 2.62272069 6.46803192 2.73661319 4 3 C3.67 3.99 3.34 4.98 3 6 C3.66 6.33 4.32 6.66 5 7 C4.34 7.66 3.68 8.32 3 9 C2.01 6.03 1.02 3.06 0 0 Z " fill="#50444B" transform="translate(178,284)"/>
<path d="M0 0 C-1.32 0.33 -2.64 0.66 -4 1 C-4.33 3.31 -4.66 5.62 -5 8 C-4.01 8 -3.02 8 -2 8 C-2 8.66 -2 9.32 -2 10 C-1.34 10 -0.68 10 0 10 C-0.33 10.66 -0.66 11.32 -1 12 C-1.54269531 11.59007812 -2.08539063 11.18015625 -2.64453125 10.7578125 C-3.35996094 10.21898437 -4.07539063 9.68015625 -4.8125 9.125 C-5.52019531 8.59132813 -6.22789063 8.05765625 -6.95703125 7.5078125 C-8.60456297 6.29185219 -10.29624211 5.13583859 -12 4 C-11.67 3.01 -11.34 2.02 -11 1 C-7.27569643 0.30710631 -3.78916254 -0.11144596 0 0 Z " fill="#80090B" transform="translate(134,269)"/>
<path d="M0 0 C3.375 -0.1875 3.375 -0.1875 7 0 C9 3 9 3 9 7 C5.7 7 2.4 7 -1 7 C-0.01 5.35 0.98 3.7 2 2 C1.34 1.67 0.68 1.34 0 1 C0 0.67 0 0.34 0 0 Z " fill="#860B0C" transform="translate(287,141)"/>
<path d="M0 0 C3.63 0 7.26 0 11 0 C11 0.66 11 1.32 11 2 C9.68 2 8.36 2 7 2 C7 4.97 7 7.94 7 11 C6.01 11 5.02 11 4 11 C4 8.03 4 5.06 4 2 C2.68 2 1.36 2 0 2 C0 1.34 0 0.68 0 0 Z " fill="#111111" transform="translate(170,366)"/>
<path d="M0 0 C11.88 1.98 11.88 1.98 24 4 C24.66 2.68 25.32 1.36 26 0 C26 2.31 26 4.62 26 7 C21.85142245 6.22228059 17.70673433 5.42551406 13.5625 4.625 C12.37849609 4.40328125 11.19449219 4.1815625 9.97460938 3.953125 C8.28754883 3.62441406 8.28754883 3.62441406 6.56640625 3.2890625 C5.00321655 2.99056396 5.00321655 2.99056396 3.40844727 2.68603516 C2.61365967 2.45964355 1.81887207 2.23325195 1 2 C0.67 1.34 0.34 0.68 0 0 Z " fill="#413C3A" transform="translate(160,230)"/>
<path d="M0 0 C0.99 0 1.98 0 3 0 C3 0.66 3 1.32 3 2 C3.66 2 4.32 2 5 2 C5 2.66 5 3.32 5 4 C4.34 4 3.68 4 3 4 C3 5.32 3 6.64 3 8 C3.99 8 4.98 8 6 8 C5.67 8.99 5.34 9.98 5 11 C1.125 10.125 1.125 10.125 0 9 C-0.04063832 7.33382885 -0.042721 5.66611905 0 4 C-0.66 4 -1.32 4 -2 4 C-2 3.34 -2 2.68 -2 2 C-1.34 2 -0.68 2 0 2 C0 1.34 0 0.68 0 0 Z " fill="#111111" transform="translate(214,367)"/>
<path d="M0 0 C3.63 0 7.26 0 11 0 C11 1.32 11 2.64 11 4 C9.56260487 4.02712066 8.12506137 4.04645067 6.6875 4.0625 C5.48673828 4.07990234 5.48673828 4.07990234 4.26171875 4.09765625 C2 4 2 4 -1 3 C-0.67 2.01 -0.34 1.02 0 0 Z " fill="#3E3E3E" transform="translate(353,167)"/>
<path d="M0 0 C0.556875 0.309375 1.11375 0.61875 1.6875 0.9375 C5.52364163 2.70005156 8.78530406 3 13 3 C13.144375 3.763125 13.28875 4.52625 13.4375 5.3125 C13.9632594 8.08172908 13.9632594 8.08172908 15 11 C11.22451284 9.66117477 8.38612311 7.98364112 5.25 5.5 C4.47140625 4.8915625 3.6928125 4.283125 2.890625 3.65625 C1 2 1 2 0 0 Z " fill="#89070A" transform="translate(200,287)"/>
<path d="M0 0 C3.96 0 7.92 0 12 0 C11.67 1.32 11.34 2.64 11 4 C9.741875 4.020625 8.48375 4.04125 7.1875 4.0625 C6.47980469 4.07410156 5.77210938 4.08570313 5.04296875 4.09765625 C3 4 3 4 0 3 C0 2.01 0 1.02 0 0 Z " fill="#5D5D5D" transform="translate(297,167)"/>
<path d="M0 0 C0 0.99 0 1.98 0 3 C-1.75 4.60546875 -1.75 4.60546875 -4 6.1875 C-4.7425 6.71730469 -5.485 7.24710938 -6.25 7.79296875 C-6.8275 8.19128906 -7.405 8.58960938 -8 9 C-8.66 8.67 -9.32 8.34 -10 8 C-9.01 6.35 -8.02 4.7 -7 3 C-8.32 2.67 -9.64 2.34 -11 2 C-7.17679443 0.57741188 -4.08718695 -0.24042276 0 0 Z " fill="#7D0B0B" transform="translate(232,232)"/>
<path d="M0 0 C0.66 0.33 1.32 0.66 2 1 C2.1875 4.375 2.1875 4.375 2 8 C-1 10 -1 10 -4.0625 9.8125 C-7 9 -7 9 -9 6 C-7.375 4.8125 -7.375 4.8125 -5 4 C-1.75 5.375 -1.75 5.375 1 7 C0.67 4.69 0.34 2.38 0 0 Z " fill="#7D0B0C" transform="translate(288,275)"/>
<path d="M0 0 C1.670625 0.061875 1.670625 0.061875 3.375 0.125 C2.75961538 5.66346154 2.75961538 5.66346154 0.8125 8 C0.1009375 8.556875 0.1009375 8.556875 -0.625 9.125 C-0.82586443 5.40900809 -0.7769437 4.35291555 1.375 1.125 C0.055 1.125 -1.265 1.125 -2.625 1.125 C-2.74875 1.723125 -2.8725 2.32125 -3 2.9375 C-3.625 5.125 -3.625 5.125 -5.625 8.125 C-6.285 8.125 -6.945 8.125 -7.625 8.125 C-5.20681818 0.17954545 -5.20681818 0.17954545 0 0 Z " fill="#7C0F13" transform="translate(260.625,117.875)"/>
<path d="M0 0 C3.1875 0.3125 3.1875 0.3125 6 1 C5.67 3.64 5.34 6.28 5 9 C2.36 7.02 -0.28 5.04 -3 3 C-2.01 2.01 -1.02 1.02 0 0 Z " fill="#830605" transform="translate(288,265)"/>
<path d="M0 0 C3.96 0 7.92 0 12 0 C12 0.99 12 1.98 12 3 C6.06 3.495 6.06 3.495 0 4 C0 2.68 0 1.36 0 0 Z " fill="#585858" transform="translate(297,173)"/>
<path d="M0 0 C3.63 0.66 7.26 1.32 11 2 C11 2.33 11 2.66 11 3 C9.35 3.33 7.7 3.66 6 4 C6.33 4.66 6.66 5.32 7 6 C6.34 6 5.68 6 5 6 C4.67 6.99 4.34 7.98 4 9 C0 3.375 0 3.375 0 0 Z " fill="#7D0C0B" transform="translate(80,220)"/>
<path d="M0 0 C2.31 0 4.62 0 7 0 C8 3 8 3 7.22265625 4.82421875 C6.1484375 6.54947917 5.07421875 8.27473958 4 10 C3.67 10 3.34 10 3 10 C3 7.03 3 4.06 3 1 C2.01 1.33 1.02 1.66 0 2 C0 1.34 0 0.68 0 0 Z " fill="#7D0E0F" transform="translate(211,118)"/>
<path d="M0 0 C5.29407649 2.57579291 5.29407649 2.57579291 7 5 C6.6875 7.6875 6.6875 7.6875 6 10 C5.01 9.67 4.02 9.34 3 9 C2.05078125 6.93359375 2.05078125 6.93359375 1.3125 4.4375 C1.06113281 3.61121094 0.80976563 2.78492188 0.55078125 1.93359375 C0.36902344 1.29550781 0.18726563 0.65742188 0 0 Z " fill="#7F090A" transform="translate(240,295)"/>
<path d="M0 0 C1.19496094 0.24556641 1.19496094 0.24556641 2.4140625 0.49609375 C6.76795599 1.10791538 10.9863942 1.10799591 15.375 1.0625 C16.62216797 1.05573242 16.62216797 1.05573242 17.89453125 1.04882812 C19.92971897 1.03713164 21.96486923 1.01919935 24 1 C23.67 1.66 23.34 2.32 23 3 C22.01 3 21.02 3 20 3 C19.67 3.66 19.34 4.32 19 5 C19 4.34 19 3.68 19 3 C17.31970703 3.05220703 17.31970703 3.05220703 15.60546875 3.10546875 C14.13282749 3.13360839 12.66017002 3.16090837 11.1875 3.1875 C10.08051758 3.22520508 10.08051758 3.22520508 8.95117188 3.26367188 C3.45025238 3.33834499 3.45025238 3.33834499 0.98828125 1.48828125 C0.66214844 0.99714844 0.33601563 0.50601563 0 0 Z " fill="#7E0D0E" transform="translate(276,240)"/>
<path d="M0 0 C7.13393752 0.51537952 14.01812817 1.44005901 21 3 C21 3.33 21 3.66 21 4 C19.37675914 4.22162329 17.751279 4.42689803 16.125 4.625 C14.76761719 4.79902344 14.76761719 4.79902344 13.3828125 4.9765625 C12.59648438 4.98429688 11.81015625 4.99203125 11 5 C10.34 4.34 9.68 3.68 9 3 C7.05848638 2.61596877 7.05848638 2.61596877 4.9375 2.5 C3.638125 2.335 2.33875 2.17 1 2 C0.67 1.34 0.34 0.68 0 0 Z " fill="#7D0D0E" transform="translate(91,223)"/>
<path d="M0 0 C2.10304477 -0.1080023 4.20766909 -0.18558987 6.3125 -0.25 C8.07013672 -0.31960937 8.07013672 -0.31960937 9.86328125 -0.390625 C13 0 13 0 14.91796875 2.015625 C15.27503906 2.67046875 15.63210937 3.3253125 16 4 C10.43109483 3.52013969 5.32932432 2.70084819 0 1 C0 0.67 0 0.34 0 0 Z " fill="#4A4A48" transform="translate(139,226)"/>
<path d="M0 0 C2.97 0 5.94 0 9 0 C8.67 1.32 8.34 2.64 8 4 C5.69 4 3.38 4 1 4 C0.67 2.68 0.34 1.36 0 0 Z " fill="#5C5C5C" transform="translate(273,179)"/>
<path d="M0 0 C3 1 3 1 4 3 C4.99 2.67 5.98 2.34 7 2 C6.67 3.65 6.34 5.3 6 7 C5.01 7.33 4.02 7.66 3 8 C1.5 6.8125 1.5 6.8125 0 5 C-0.1875 2.3125 -0.1875 2.3125 0 0 Z " fill="#4E4E4E" transform="translate(322,175)"/>
<path d="M0 0 C1.32 0 2.64 0 4 0 C3.30058404 3.14737182 2.23921302 6.02588876 1 9 C0.67 8.34 0.34 7.68 0 7 C-0.99 7 -1.98 7 -3 7 C-2.690625 6.401875 -2.38125 5.80375 -2.0625 5.1875 C-0.89790296 2.91043228 -0.89790296 2.91043228 0 0 Z " fill="#8C0101" transform="translate(258,119)"/>
<path d="M0 0 C-0.56371414 3.26954202 -1.49962266 4.82575883 -4 7 C-4 6.01 -4 5.02 -4 4 C-5.98 3.34 -7.96 2.68 -10 2 C-6.3558226 -0.4294516 -4.28758728 -0.16179575 0 0 Z " fill="#850605" transform="translate(225,235)"/>
<path d="M0 0 C1.07765625 0.03609375 2.1553125 0.0721875 3.265625 0.109375 C4.49539063 0.17898437 4.49539063 0.17898437 5.75 0.25 C2.33788584 2.52474277 0.0931471 2.81629644 -3.9375 3.375 C-5.11699219 3.54257813 -6.29648437 3.71015625 -7.51171875 3.8828125 C-8.41535156 4.00398437 -9.31898438 4.12515625 -10.25 4.25 C-7.0246569 0.27312065 -5.05259733 -0.21967814 0 0 Z " fill="#49444A" transform="translate(345.25,225.75)"/>
<path d="M0 0 C1.9375 0.0625 1.9375 0.0625 4 1 C5.25 4.0625 5.25 4.0625 6 7 C4.68 7 3.36 7 2 7 C1.01 5.02 0.02 3.04 -1 1 C-0.67 0.67 -0.34 0.34 0 0 Z " fill="#4D4D4D" transform="translate(189,175)"/>
<path d="M0 0 C1.32 0 2.64 0 4 0 C4.38218767 1.65614657 4.71395102 3.32457024 5 5 C4 6 4 6 1.4375 6.0625 C0.2309375 6.0315625 0.2309375 6.0315625 -1 6 C-0.67 4.02 -0.34 2.04 0 0 Z " fill="#8C0202" transform="translate(128,148)"/>
<path d="M0 0 C0.33 0 0.66 0 1 0 C1.04254356 1.99954746 1.04080783 4.00041636 1 6 C0 7 0 7 -3.5625 7.0625 C-4.696875 7.041875 -5.83125 7.02125 -7 7 C-7 6.01 -7 5.02 -7 4 C-6.01 4 -5.02 4 -4 4 C-4 3.34 -4 2.68 -4 2 C-3.01 2 -2.02 2 -1 2 C-0.67 1.34 -0.34 0.68 0 0 Z " fill="#151515" transform="translate(200,373)"/>
<path d="M0 0 C2.125 0.9375 2.125 0.9375 4 2 C3.67 2.66 3.34 3.32 3 4 C3.763125 4 4.52625 4 5.3125 4 C7.20833333 4 9.10416667 4 11 4 C9 6 9 6 6.1875 6.4375 C2.02289871 5.86588806 0.66580904 4.13624593 -2 1 C-1.34 0.67 -0.68 0.34 0 0 Z " fill="#7D0E0C" transform="translate(268,289)"/>
<path d="M0 0 C0.66 0.33 1.32 0.66 2 1 C1.67 2.32 1.34 3.64 1 5 C2.98 5 4.96 5 7 5 C7 5.66 7 6.32 7 7 C4.6875 7.6875 4.6875 7.6875 2 8 C0.125 6.875 0.125 6.875 -1 5 C-0.6875 2.3125 -0.6875 2.3125 0 0 Z " fill="#0F0F0F" transform="translate(274,370)"/>
<path d="M0 0 C1.65 0 3.3 0 5 0 C4.01 2.97 3.02 5.94 2 9 C1.34 9 0.68 9 0 9 C0 6.03 0 3.06 0 0 Z " fill="#0E0E0E" transform="translate(242,369)"/>
<path d="M0 0 C3 1 3 1 4.16796875 2.77734375 C4.50441406 3.49019531 4.84085938 4.20304688 5.1875 4.9375 C5.70376953 6.00291016 5.70376953 6.00291016 6.23046875 7.08984375 C7 9 7 9 7 11 C6.34 11 5.68 11 5 11 C5 10.01 5 9.02 5 8 C4.34 8 3.68 8 3 8 C2.67 6.35 2.34 4.7 2 3 C1.01 3 0.02 3 -1 3 C-0.67 2.01 -0.34 1.02 0 0 Z " fill="#7C0E0F" transform="translate(239,124)"/>
<path d="M0 0 C1.98 0 3.96 0 6 0 C6 4.62 6 9.24 6 14 C4.25372522 11.38058783 3.61277612 9.96175123 3 7 C3.66 7 4.32 7 5 7 C5 5.02 5 3.04 5 1 C3.35 1.33 1.7 1.66 0 2 C0 1.34 0 0.68 0 0 Z " fill="#8E080C" transform="translate(191,119)"/>
<path d="M0 0 C-2.85276137 2.93200474 -5.65079784 5.64315404 -9 8 C-8.64005447 5.3364031 -8.28838998 3.41816548 -6.75 1.1875 C-4.41988723 -0.39364795 -2.75498245 -0.22337696 0 0 Z " fill="#810807" transform="translate(221,242)"/>
<path d="M0 0 C-1.55500981 3.81684226 -4.03595495 6.19195732 -7 9 C-6.6875 5.625 -6.6875 5.625 -6 2 C-3 0 -3 0 0 0 Z " fill="#7F090A" transform="translate(403,233)"/>
<path d="M0 0 C0.33 0.99 0.66 1.98 1 3 C0.34 3 -0.32 3 -1 3 C-1 3.66 -1 4.32 -1 5 C-1.99 4.67 -2.98 4.34 -4 4 C-4 3.34 -4 2.68 -4 2 C-6.31 2 -8.62 2 -11 2 C-11 1.67 -11 1.34 -11 1 C-7.27569643 0.30710631 -3.78916254 -0.11144596 0 0 Z " fill="#830E0D" transform="translate(344,233)"/>
<path d="M0 0 C1.65 0 3.3 0 5 0 C5.33 1.65 5.66 3.3 6 5 C4.02 5.33 2.04 5.66 0 6 C0.33 5.01 0.66 4.02 1 3 C0.67 2.01 0.34 1.02 0 0 Z " fill="#1B1B1B" transform="translate(233,369)"/>
<path d="M0 0 C3.63 0.33 7.26 0.66 11 1 C10.34 2.32 9.68 3.64 9 5 C8.01 5 7.02 5 6 5 C6.33 4.34 6.66 3.68 7 3 C4.69 2.34 2.38 1.68 0 1 C0 0.67 0 0.34 0 0 Z " fill="#771110" transform="translate(358,269)"/>
<path d="M0 0 C-2.40436026 3.60654039 -3.94679607 3.85452932 -8 5 C-8 4.34 -8 3.68 -8 3 C-8.99 2.34 -9.98 1.68 -11 1 C-7.26562152 0.12132271 -3.83225427 -0.08912219 0 0 Z " fill="#810A09" transform="translate(388,225)"/>
<path d="M0 0 C1.98 0 3.96 0 6 0 C5.67 1.98 5.34 3.96 5 6 C2.5 4.6875 2.5 4.6875 0 3 C0 2.01 0 1.02 0 0 Z " fill="#1B1B1B" transform="translate(302,369)"/>
<path d="M0 0 C0.66 2.31 1.32 4.62 2 7 C-1.36591866 5.55746343 -3.51047079 3.66735273 -6 1 C-3.92446352 0.4465236 -2.15634036 0 0 0 Z " fill="#820606" transform="translate(267,248)"/>
<path d="M0 0 C2.64 0 5.28 0 8 0 C7.67 1.32 7.34 2.64 7 4 C4.03 3.505 4.03 3.505 1 3 C0.67 2.01 0.34 1.02 0 0 Z " fill="#585858" transform="translate(339,167)"/>
<path d="M0 0 C2.97 0 5.94 0 9 0 C7 3 7 3 3.875 3.6875 C2.92625 3.790625 1.9775 3.89375 1 4 C0.67 2.68 0.34 1.36 0 0 Z " fill="#585858" transform="translate(143,167)"/>
<path d="M0 0 C0.66 0.33 1.32 0.66 2 1 C1.67 3.97 1.34 6.94 1 10 C-0.64350079 6.71299843 -1.41321669 4.52069985 -2 1 C-1.34 0.67 -0.68 0.34 0 0 Z " fill="#8E0102" transform="translate(301,136)"/>
<path d="M0 0 C0.66 0 1.32 0 2 0 C2 0.99 2 1.98 2 3 C2.66 3 3.32 3 4 3 C5.38938077 4.96147874 6.7260411 6.96166576 8 9 C6.68 9 5.36 9 4 9 C0 2.25 0 2.25 0 0 Z " fill="#800B0F" transform="translate(233,125)"/>
<path d="M0 0 C0.99 0 1.98 0 3 0 C3 2.64 3 5.28 3 8 C2.01 7.67 1.02 7.34 0 7 C0 4.69 0 2.38 0 0 Z " fill="#0A0A0A" transform="translate(316,370)"/>
<path d="M0 0 C2.64 0 5.28 0 8 0 C7.67 1.32 7.34 2.64 7 4 C5.68 4 4.36 4 3 4 C1.25 2 1.25 2 0 0 Z " fill="#585858" transform="translate(255,167)"/>
<path d="M0 0 C1.65 0 3.3 0 5 0 C5 2.31 5 4.62 5 7 C2.5 5.1875 2.5 5.1875 0 3 C0 2.01 0 1.02 0 0 Z " fill="#80070A" transform="translate(97,251)"/>
<path d="M0 0 C-0.33 1.32 -0.66 2.64 -1 4 C-2.65 4 -4.3 4 -6 4 C-6.33 3.01 -6.66 2.02 -7 1 C-4 0 -4 0 0 0 Z " fill="#454545" transform="translate(347,179)"/>
<path d="M0 0 C0.556875 0.309375 1.11375 0.61875 1.6875 0.9375 C4.12540433 2.05761821 6.36224186 2.56037364 9 3 C9.33 4.65 9.66 6.3 10 8 C6.05205855 6.32971708 3.18203882 3.8204435 0 1 C0 0.67 0 0.34 0 0 Z " fill="#7E0F12" transform="translate(200,287)"/>
<path d="M0 0 C2.97 0.495 2.97 0.495 6 1 C6 1.33 6 1.66 6 2 C4.35 2.33 2.7 2.66 1 3 C0.896875 3.639375 0.79375 4.27875 0.6875 4.9375 C0.460625 5.618125 0.23375 6.29875 0 7 C-0.99 7.33 -1.98 7.66 -3 8 C-1.125 2.25 -1.125 2.25 0 0 Z " fill="#514A4D" transform="translate(299,284)"/>
<path d="M0 0 C2.475 0.495 2.475 0.495 5 1 C4.34 2.65 3.68 4.3 3 6 C3.66 6.33 4.32 6.66 5 7 C4.34 7.66 3.68 8.32 3 9 C2.01 6.03 1.02 3.06 0 0 Z " fill="#484042" transform="translate(178,284)"/>
<path d="M0 0 C0.66 0.33 1.32 0.66 2 1 C1.67 2.32 1.34 3.64 1 5 C-0.98 5 -2.96 5 -5 5 C-5.33 4.34 -5.66 3.68 -6 3 C-4.02 2.67 -2.04 2.34 0 2 C0 1.34 0 0.68 0 0 Z " fill="#78100F" transform="translate(218,151)"/>
<path d="M0 0 C3.36591866 1.44253657 5.51047079 3.33264727 8 6 C5.36 5.34 2.72 4.68 0 4 C0 2.68 0 1.36 0 0 Z " fill="#7E080B" transform="translate(268,279)"/>
<path d="M0 0 C2.31 0 4.62 0 7 0 C7 0.99 7 1.98 7 3 C4.36 2.67 1.72 2.34 -1 2 C-0.67 1.34 -0.34 0.68 0 0 Z " fill="#3F3F3F" transform="translate(298,168)"/>
<path d="M0 0 C0.99 0 1.98 0 3 0 C3.33 1.65 3.66 3.3 4 5 C3.01 5 2.02 5 1 5 C0.34 3.68 -0.32 2.36 -1 1 C-0.67 0.67 -0.34 0.34 0 0 Z " fill="#8A0100" transform="translate(238,127)"/>
<path d="M0 0 C1.65 0 3.3 0 5 0 C5.33 0.99 5.66 1.98 6 3 C3.69 3.33 1.38 3.66 -1 4 C-0.67 2.68 -0.34 1.36 0 0 Z " fill="#191919" transform="translate(206,371)"/>
<path d="M0 0 C2.3125 -0.25 2.3125 -0.25 5 0 C6.8125 2 6.8125 2 8 4 C7.05125 3.79375 6.1025 3.5875 5.125 3.375 C4.09375 3.25125 3.0625 3.1275 2 3 C1.34 3.66 0.68 4.32 0 5 C0 3.35 0 1.7 0 0 Z " fill="#7E0A0A" transform="translate(263,271)"/>
<path d="M0 0 C3.63 0 7.26 0 11 0 C11 0.33 11 0.66 11 1 C7.04 1.66 3.08 2.32 -1 3 C-0.67 2.01 -0.34 1.02 0 0 Z " fill="#585858" transform="translate(353,167)"/>
<path d="M0 0 C1.80125336 2.70188004 3.00243753 4.93057703 4 8 C3.67 8.99 3.34 9.98 3 11 C2.67 9.35 2.34 7.7 2 6 C1.34 6 0.68 6 0 6 C-0.38218767 4.34385343 -0.71395102 2.67542976 -1 1 C-0.67 0.67 -0.34 0.34 0 0 Z " fill="#6E0F11" transform="translate(335,123)"/>
<path d="M0 0 C0.33 0.99 0.66 1.98 1 3 C3.01508358 3.73323796 3.01508358 3.73323796 5 4 C4.01 4.66 3.02 5.32 2 6 C1.27034634 8.56282742 1.27034634 8.56282742 1 11 C0.67 11 0.34 11 0 11 C0 7.37 0 3.74 0 0 Z " fill="#161616" transform="translate(223,366)"/>
<path d="M0 0 C2.64 0 5.28 0 8 0 C8.33 1.32 8.66 2.64 9 4 C8.4225 3.690625 7.845 3.38125 7.25 3.0625 C5.15705816 2.07416636 3.25464725 1.4831387 1 1 C0.67 1.66 0.34 2.32 0 3 C0 2.01 0 1.02 0 0 Z " fill="#7F131A" transform="translate(230,118)"/>
<path d="M0 0 C0 2.31 0 4.62 0 7 C-0.99 6.67 -1.98 6.34 -3 6 C-3 4.35 -3 2.7 -3 1 C-1 0 -1 0 0 0 Z " fill="#0B0B0B" transform="translate(292,368)"/>
<path d="M0 0 C0.763125 0.61875 1.52625 1.2375 2.3125 1.875 C4.99625809 4.05597052 4.99625809 4.05597052 8 6 C6.68 6.33 5.36 6.66 4 7 C4 6.34 4 5.68 4 5 C2.68 4.67 1.36 4.34 0 4 C0 2.68 0 1.36 0 0 Z " fill="#80080B" transform="translate(212,254)"/>
<path d="M0 0 C2.97 0 5.94 0 9 0 C9 0.99 9 1.98 9 3 C4.545 2.01 4.545 2.01 0 1 C0 0.67 0 0.34 0 0 Z " fill="#313332" transform="translate(139,226)"/>
<path d="M0 0 C1.32 0 2.64 0 4 0 C3.34 1.98 2.68 3.96 2 6 C1.34 5.34 0.68 4.68 0 4 C0 2.68 0 1.36 0 0 Z " fill="#85060B" transform="translate(231,119)"/>
</svg>
