<?xml version="1.0" encoding="UTF-8"?>
<svg version="1.1" xmlns="http://www.w3.org/2000/svg" width="500" height="500">
<path d="M0 0 C165 0 330 0 500 0 C500 165 500 330 500 500 C335 500 170 500 0 500 C0 335 0 170 0 0 Z " fill="#FEFEFE" transform="translate(0,0)"/>
<path d="M0 0 C22.22311804 3.11296595 44.21409692 7.61364135 66.20385742 12.04541016 C72.24952863 13.2607402 78.29976023 14.44920408 84.35546875 15.61328125 C85.06392441 15.74959457 85.77238007 15.8859079 86.50230408 16.02635193 C89.99602409 16.69812629 93.4902203 17.36728372 96.98510742 18.03295898 C98.24556885 18.27473877 99.50603027 18.51651855 100.8046875 18.765625 C102.49053955 19.08708496 102.49053955 19.08708496 104.21044922 19.41503906 C107 20 107 20 110 21 C118.64988864 21.86319055 125.89258615 18.94692682 133.875 16 C135.8506969 15.28235291 137.82774878 14.56881154 139.80667114 13.86010742 C141.58735971 13.22065526 143.36387732 12.56962311 145.14013672 11.91796875 C148 11 148 11 151 11 C151 11.99 151 12.98 151 14 C149.56298828 15.41040039 149.56298828 15.41040039 147.5703125 16.84765625 C146.85746094 17.37037109 146.14460937 17.89308594 145.41015625 18.43164062 C144.65605469 18.96982422 143.90195313 19.50800781 143.125 20.0625 C141.64755165 21.13550005 140.17095091 22.20966844 138.6953125 23.28515625 C138.03547363 23.75832275 137.37563477 24.23148926 136.69580078 24.71899414 C134.87431729 26.03367679 134.87431729 26.03367679 133 28 C132.75787127 29.98128508 132.75787127 29.98128508 132.875 32.125 C132.91625 33.40375 132.9575 34.6825 133 36 C139.47802575 38.94455716 144.8551895 39.64972287 151.54296875 37.234375 C155.48297084 35.25497808 158.77116506 32.48097929 162.12890625 29.64453125 C165.82547427 27.52717733 168.89226074 27.09966686 173 28 C175.7362061 29.36500491 177.96926996 31.17423213 180.3125 33.125 C181.69538788 34.22030058 183.07956228 35.31397829 184.46484375 36.40625 C185.19171387 36.98761719 185.91858398 37.56898438 186.66748047 38.16796875 C190.82134126 41.4305364 195.10600402 44.51562962 199.375 47.625 C200.98842138 48.80271427 202.60050821 49.98226009 204.2109375 51.1640625 C204.89462402 51.66373535 205.57831055 52.1634082 206.28271484 52.67822266 C208 54 208 54 210 56 C209.43181818 61.56818182 209.43181818 61.56818182 208 63 C203.86325634 63.57963222 202.25469125 63.1666685 198.7109375 60.84765625 C197.58715507 59.93359378 196.47530091 59.00469693 195.375 58.0625 C190.75036456 53.92898031 190.75036456 53.92898031 185 52 C185.00824247 53.841787 185.00824247 53.841787 186 56 C188.73027026 58.229902 191.51320925 60.22661925 194.42773438 62.20117188 C198.89432961 65.40148983 198.89432961 65.40148983 199.4765625 68.69921875 C199 71 199 71 197.8125 72.875 C196 74 196 74 193.859375 73.9140625 C189.75134994 72.60084137 186.81041138 70.13332511 183.4375 67.5 C182.12818432 66.48377649 180.81451343 65.47313404 179.49609375 64.46875 C178.92044678 64.01951172 178.3447998 63.57027344 177.75170898 63.10742188 C175.84725756 61.90343697 174.20031452 61.4269762 172 61 C172.08285007 62.88076476 172.08285007 62.88076476 173 65 C175.76940486 67.13429953 178.67064279 68.94305419 181.62890625 70.8046875 C184 73 184 73 184.46484375 76.1328125 C184 79 184 79 182 81 C176.23422481 80.83287608 173.16965893 79.08105698 168.75 75.5 C164.69844485 72.15825751 164.69844485 72.15825751 160 70 C161.23780318 73.82470326 161.23780318 73.82470326 164.125 76.5 C166 78 166 78 166.3125 80.625 C166 83 166 83 165 84 C150.63988285 85.40098704 137.3399055 80.55518817 126.09765625 71.71875 C122.73057173 68.75215571 119.66654671 65.99486695 117.16015625 62.25390625 C115.14610746 59.70957398 115.14610746 59.70957398 111.875 59.44140625 C109.956875 59.50134766 109.956875 59.50134766 108 59.5625 C107.28231445 59.57990234 106.56462891 59.59730469 105.82519531 59.61523438 C97.28665892 59.88942369 88.75098319 60.5907844 80.23828125 61.28735352 C74.49095157 61.74686264 68.74889013 62.11638458 62.984375 62.26171875 C61.96569336 62.28967529 60.94701172 62.31763184 59.89746094 62.34643555 C52.3946251 61.44935735 47.03579981 55.1333241 42 50 C44.54152435 49.52006844 47.08321222 49.04103273 49.625 48.5625 C50.33785156 48.42779297 51.05070312 48.29308594 51.78515625 48.15429688 C52.48769531 48.02216797 53.19023437 47.89003906 53.9140625 47.75390625 C54.5529541 47.63345947 55.1918457 47.5130127 55.85009766 47.38891602 C58.56226479 46.89828664 61.2806201 46.44871462 64 46 C63.1028125 46.0314209 62.205625 46.0628418 61.28125 46.09521484 C57.9188685 46.19811831 54.55818392 46.27299303 51.19482422 46.32958984 C49.7456607 46.35957254 48.29667572 46.40037521 46.84814453 46.45263672 C32.28400794 46.96453952 32.28400794 46.96453952 26.53515625 41.62158203 C26.02855469 41.08645996 25.52195312 40.55133789 25 40 C24.0925 39.18015625 23.185 38.3603125 22.25 37.515625 C21.5075 36.76796875 20.765 36.0203125 20 35.25 C19.236875 34.49203125 18.47375 33.7340625 17.6875 32.953125 C16 31 16 31 16 29 C36.79 29 57.58 29 79 29 C72.9775 28.71125 66.955 28.4225 60.75 28.125 C54.59001794 27.80417026 48.43121235 27.4654419 42.2723999 27.12310791 C40.28825178 27.01561612 38.3035806 26.91786801 36.31884766 26.82177734 C20.24749675 26.01935611 20.24749675 26.01935611 15.1875 21.9375 C13.5234375 20.05078125 13.5234375 20.05078125 12 18 C11.09121094 16.93845703 11.09121094 16.93845703 10.1640625 15.85546875 C6.08387747 10.94030915 2.91042031 5.6733078 0 0 Z " fill="#900303" transform="translate(80,221)"/>
<path d="M0 0 C-1.48676727 4.22430699 -3.64708255 7.78083046 -6.1875 11.4375 C-6.58461182 12.01081055 -6.98172363 12.58412109 -7.39086914 13.17480469 C-10.8696848 18.06229325 -14.55433278 22.27716639 -20 25 C-23.12844466 25.47476857 -26.2870358 25.71092515 -29.4375 26 C-30.68756836 26.12375 -30.68756836 26.12375 -31.96289062 26.25 C-41.30818665 27.12891101 -50.60154704 27.50534458 -60 28 C-45.15 28.33 -30.3 28.66 -15 29 C-18.02847948 33.54271922 -20.07751792 36.28195182 -24 39.75 C-24.845625 40.50796875 -25.69125 41.2659375 -26.5625 42.046875 C-31.19060246 45.75529044 -34.19351739 46.24431543 -40.171875 46.1953125 C-40.8542926 46.1924826 -41.53671021 46.18965271 -42.23980713 46.18673706 C-44.41005307 46.17558098 -46.57987971 46.15048557 -48.75 46.125 C-50.22525444 46.11496426 -51.70051537 46.10583944 -53.17578125 46.09765625 C-56.78414397 46.07736175 -60.39160504 46.03820653 -64 46 C-56.74 47.32 -49.48 48.64 -42 50 C-53.57961583 61.57961583 -53.57961583 61.57961583 -59.65185547 62.32592773 C-61.05781982 62.28640991 -61.05781982 62.28640991 -62.4921875 62.24609375 C-63.54631836 62.2188623 -64.60044922 62.19163086 -65.68652344 62.16357422 C-72.36183862 61.83403832 -79.01426484 61.32055108 -85.67431641 60.76806641 C-90.98343557 60.33917172 -96.24999016 59.94627408 -101.578125 59.92578125 C-102.39909668 59.91474365 -103.22006836 59.90370605 -104.06591797 59.89233398 C-105.55464018 59.88115834 -107.04405622 59.9005232 -108.53173828 59.95727539 C-110.5234375 59.9296875 -110.5234375 59.9296875 -114 59 C-115.45928995 57.1586955 -116.49550055 55.23778686 -117.609375 53.17041016 C-120.14450752 49.21371632 -123.99666109 46.88535812 -127.8125 44.25 C-129.50581656 43.04382217 -131.19851364 41.83677425 -132.890625 40.62890625 C-134.16583008 39.72809326 -134.16583008 39.72809326 -135.46679688 38.80908203 C-139.38781314 36.00889597 -143.22404097 33.09928147 -147.0625 30.1875 C-153.90527627 24.85825053 -153.90527627 24.85825053 -162.359375 23.515625 C-168.25165049 24.5964566 -173.10156876 28.79922179 -177.78515625 32.35546875 C-181.59678847 35.17099442 -184.31364115 35.52070654 -189 35 C-191.4375 34 -191.4375 34 -193 33 C-192.45409615 29.27640911 -191.16991248 27.96507323 -188.2109375 25.72265625 C-187.04498047 24.82836914 -187.04498047 24.82836914 -185.85546875 23.91601562 C-185.03691406 23.30435547 -184.21835938 22.69269531 -183.375 22.0625 C-182.57964844 21.45470703 -181.78429687 20.84691406 -180.96484375 20.22070312 C-179.38845104 19.02093626 -177.80219706 17.83400894 -176.20605469 16.66064453 C-174.03211415 15.06918161 -174.03211415 15.06918161 -172.23925781 13.44482422 C-168.07301505 9.91829971 -164.54275523 9.22084177 -159.11376953 9.48046875 C-152.90744648 10.51599137 -147.20020746 13.06224609 -141.4375 15.5 C-127.23048225 21.49287147 -117.72197518 21.43884131 -102.80932617 18.35232544 C-98.79379715 17.52233694 -94.77152342 16.72612352 -90.75 15.92578125 C-89.92850464 15.76152145 -89.10700928 15.59726166 -88.26062012 15.42802429 C-80.36034956 13.85539363 -72.43657493 12.4382478 -64.5 11.0625 C-61.7381471 10.58279948 -58.97641957 10.10238694 -56.21484375 9.62109375 C-55.50367905 9.49719269 -54.79251434 9.37329163 -54.05979919 9.24563599 C-47.76464559 8.14390772 -41.47762984 6.99912855 -35.19140625 5.84765625 C-34.18488007 5.66346634 -33.17835388 5.47927643 -32.1413269 5.289505 C-28.12215615 4.55355367 -24.10309724 3.81705103 -20.08496094 3.07546997 C-17.2979264 2.56112743 -14.51034055 2.04986964 -11.72265625 1.5390625 C-10.88368301 1.38313126 -10.04470978 1.22720001 -9.18031311 1.06654358 C-6.07884522 0.50013828 -3.16007109 0 0 0 Z " fill="#910404" transform="translate(410,221)"/>
<path d="M0 0 C1.0823291 0.16870605 1.0823291 0.16870605 2.18652344 0.34082031 C19.45162623 3.06926277 34.43254526 7.98733947 50 16 C50 20.95 50 25.9 50 31 C56.6 31 63.2 31 70 31 C70 31.33 70 31.66 70 32 C65.49829422 32.85797485 60.99593065 33.71237714 56.49291992 34.56347656 C54.96115819 34.85351045 53.42958076 35.14451953 51.89819336 35.43652344 C49.69692963 35.85608359 47.4950268 36.27213173 45.29296875 36.6875 C44.60849167 36.81874268 43.92401459 36.94998535 43.21879578 37.08520508 C40.4246386 37.60929491 37.85099696 38 35 38 C34.67 34.04 34.34 30.08 34 26 C20.94204545 20.95809998 8.2210846 17.50593724 -5.61669922 15.36962891 C-7.39619438 15.09364492 -9.17113902 14.78801947 -10.94311523 14.46728516 C-36.07733016 10.62518889 -64.85586022 15.75587256 -88 26 C-88.33 30.62 -88.66 35.24 -89 40 C-97.98844179 38.57567769 -106.85957203 36.81456101 -115.75 34.875 C-117.03132812 34.59785156 -118.31265625 34.32070312 -119.6328125 34.03515625 C-122.75576478 33.35929344 -125.87813547 32.68086623 -129 32 C-129 31.67 -129 31.34 -129 31 C-120.75 31 -112.5 31 -104 31 C-104 26.05 -104 21.1 -104 16 C-94.90470777 11.10253495 -85.84651541 7.6700658 -76.00195312 4.62109375 C-74.37668405 4.11686393 -72.75762067 3.59266251 -71.140625 3.0625 C-48.46220376 -3.87103006 -23.23251289 -3.73559961 0 0 Z " fill="#565656" transform="translate(274,196)"/>
<path d="M0 0 C11.97252016 -1.51338036 11.97252016 -1.51338036 16.46484375 1.83984375 C18.55518841 4.46001835 20.30255524 7.11007117 22 10 C32.13760143 26.69145029 47.32078572 43.66079098 66 51 C71.34712577 50.89828837 75.17900641 48.48247741 79.5625 45.6875 C80.25851318 45.24744629 80.95452637 44.80739258 81.67163086 44.35400391 C88.86505125 39.66011048 94.98006124 34.09657164 101 28 C101.67417969 27.32453125 102.34835937 26.6490625 103.04296875 25.953125 C110.0602741 18.43802453 115.43177289 9.13645422 120 0 C125.61 0 131.22 0 137 0 C125.98906244 29.36250017 105.06678099 49.55100832 78.22363281 64.71435547 C76.79833607 65.53842361 75.39345877 66.39952802 74.01855469 67.30517578 C69.6583663 70.121278 69.6583663 70.121278 66.625 69.5625 C65.75875 69.046875 64.8925 68.53125 64 68 C63.03126953 67.47986328 63.03126953 67.47986328 62.04296875 66.94921875 C33.79842079 51.76344603 12.89215206 31.62609154 0 2 C0 1.34 0 0.68 0 0 Z " fill="#565656" transform="translate(179,285)"/>
<path d="M0 0 C1.21816406 0.03480469 1.21816406 0.03480469 2.4609375 0.0703125 C3.68683594 0.09738281 3.68683594 0.09738281 4.9375 0.125 C5.87722656 0.15980469 5.87722656 0.15980469 6.8359375 0.1953125 C9.98851749 6.15018582 12.4425595 12.21812291 14.78515625 18.53515625 C15.58545652 21.07745766 15.58545652 21.07745766 16.8359375 22.1953125 C17.06780762 21.59992676 17.29967773 21.00454102 17.53857422 20.39111328 C18.59062001 17.69869624 19.65067042 15.00950202 20.7109375 12.3203125 C21.07574219 11.38316406 21.44054687 10.44601563 21.81640625 9.48046875 C22.17089844 8.58457031 22.52539062 7.68867187 22.890625 6.765625 C23.21530762 5.93820801 23.53999023 5.11079102 23.87451172 4.25830078 C24.8359375 2.1953125 24.8359375 2.1953125 26.8359375 0.1953125 C28.96484375 -0.03515625 28.96484375 -0.03515625 31.3984375 0.0078125 C32.60693359 0.01748047 32.60693359 0.01748047 33.83984375 0.02734375 C35.8359375 0.1953125 35.8359375 0.1953125 36.8359375 1.1953125 C36.92445279 3.78890572 36.95119695 6.35570941 36.93359375 8.94921875 C36.9321788 9.72466537 36.93076385 10.500112 36.92930603 11.29905701 C36.92369095 13.78534744 36.91113596 16.2715491 36.8984375 18.7578125 C36.89342444 20.43945183 36.8888612 22.12109256 36.88476562 23.80273438 C36.87371663 27.93362816 36.85644195 32.06445526 36.8359375 36.1953125 C34.8559375 36.1953125 32.8759375 36.1953125 30.8359375 36.1953125 C30.5059375 27.2853125 30.1759375 18.3753125 29.8359375 9.1953125 C27.28936659 15.64069697 27.28936659 15.64069697 24.75048828 22.08911133 C24.43063965 22.89372803 24.11079102 23.69834473 23.78125 24.52734375 C23.45656738 25.34952393 23.13188477 26.1717041 22.79736328 27.01879883 C21.8359375 29.1953125 21.8359375 29.1953125 19.8359375 32.1953125 C16.8984375 32.5703125 16.8984375 32.5703125 13.8359375 32.1953125 C11.2444166 30.12682879 10.16569206 28.03484823 9.01171875 24.96484375 C8.73497314 24.24143799 8.45822754 23.51803223 8.1730957 22.77270508 C7.8349585 21.86029053 7.49682129 20.94787598 7.1484375 20.0078125 C6.0553125 17.0996875 4.9621875 14.1915625 3.8359375 11.1953125 C3.5059375 19.4453125 3.1759375 27.6953125 2.8359375 36.1953125 C0.5259375 36.1953125 -1.7840625 36.1953125 -4.1640625 36.1953125 C-4.21343133 31.38982653 -4.24976693 26.58448756 -4.27392578 21.77880859 C-4.28399504 20.14336578 -4.29765131 18.50794101 -4.31494141 16.87255859 C-4.33914955 14.5243688 -4.35053607 12.17641662 -4.359375 9.828125 C-4.37485886 8.72804611 -4.37485886 8.72804611 -4.39065552 7.60574341 C-4.39105618 5.80068553 -4.28619005 3.9962342 -4.1640625 2.1953125 C-2.1640625 0.1953125 -2.1640625 0.1953125 0 0 Z " fill="#940C0C" transform="translate(326.1640625,118.8046875)"/>
<path d="M0 0 C3.8046399 1.39762282 4.28811709 3.03312662 5.94946289 6.58007812 C8.17103069 11.6596181 10.25873405 16.7881595 12.3125 21.9375 C13.00085938 23.63422852 13.00085938 23.63422852 13.703125 25.36523438 C14.13625 26.44740234 14.569375 27.52957031 15.015625 28.64453125 C15.40911133 29.62526611 15.80259766 30.60600098 16.20800781 31.61645508 C17.0625 34.125 17.0625 34.125 17.0625 37.125 C14.7525 37.125 12.4425 37.125 10.0625 37.125 C8.3874356 33.02421069 6.72389655 28.91884364 5.0625 24.8125 C4.58554687 23.64525391 4.10859375 22.47800781 3.6171875 21.27539062 C3.16601562 20.15712891 2.71484375 19.03886719 2.25 17.88671875 C1.83105469 16.85506592 1.41210938 15.82341309 0.98046875 14.76049805 C0.0625 12.125 0.0625 12.125 0.0625 9.125 C-0.5975 9.125 -1.2575 9.125 -1.9375 9.125 C-2.040625 9.785 -2.14375 10.445 -2.25 11.125 C-3.12963564 14.96341009 -4.50719896 18.45596691 -5.9375 22.125 C-3.9575 22.455 -1.9775 22.785 0.0625 23.125 C0.3925 25.435 0.7225 27.745 1.0625 30.125 C-2.5675 30.125 -6.1975 30.125 -9.9375 30.125 C-10.5975 32.435 -11.2575 34.745 -11.9375 37.125 C-14.2475 37.125 -16.5575 37.125 -18.9375 37.125 C-18.06265801 30.43861694 -15.46989295 24.56399556 -12.89990234 18.39208984 C-12.06100968 16.37141019 -11.23905825 14.34437477 -10.41796875 12.31640625 C-9.8864277 11.02822819 -9.35390948 9.7404528 -8.8203125 8.453125 C-8.33965332 7.2868457 -7.85899414 6.12056641 -7.36376953 4.91894531 C-5.50055167 1.26905397 -4.1249168 0.17552837 0 0 Z " fill="#930A0A" transform="translate(293.9375,117.875)"/>
<path d="M0 0 C2.31 0 4.62 0 7 0 C7 4.62 7 9.24 7 14 C10.36898649 14.02050878 10.36898649 14.02050878 14 13 C15.72767204 10.7055784 16.78987284 8.98808121 17.9375 6.4375 C18.39092773 5.51420898 18.39092773 5.51420898 18.85351562 4.57226562 C19.59237388 3.05936538 20.29944006 1.53101093 21 0 C23.31 0 25.62 0 28 0 C26.62500291 5.22498894 24.07609928 9.13722283 21.046875 13.53515625 C19.72973443 15.9501929 19.72973443 15.9501929 20.6015625 18.42578125 C22.78800881 22.45055252 25.15151359 26.35002836 27.5390625 30.2578125 C29 33 29 33 29 36 C26.69 36 24.38 36 22 36 C21.50371094 35.00097656 21.00742188 34.00195312 20.49609375 32.97265625 C19.81121711 31.66857607 19.12494534 30.36522792 18.4375 29.0625 C18.11458984 28.40314453 17.79167969 27.74378906 17.45898438 27.06445312 C16.33836317 24.86044622 16.33836317 24.86044622 14 22 C11.69 21.67 9.38 21.34 7 21 C7 25.95 7 30.9 7 36 C4.69 36 2.38 36 0 36 C0 24.12 0 12.24 0 0 Z " fill="#940C0C" transform="translate(190,119)"/>
<path d="M0 0 C3.64038406 0.7991087 4.4410188 2.54472619 6.5625 5.5625 C7.64170433 7.77002499 8.64227767 10.01705054 9.578125 12.2890625 C9.83881775 12.91855804 10.0995105 13.54805359 10.36810303 14.19662476 C10.91309989 15.51780256 11.45408371 16.84064232 11.99121094 18.16503906 C12.81455306 20.19255574 13.65234081 22.21364703 14.4921875 24.234375 C18.5625 34.1406684 18.5625 34.1406684 18.5625 37.5625 C16.2525 37.5625 13.9425 37.5625 11.5625 37.5625 C7.9325 28.6525 4.3025 19.7425 0.5625 10.5625 C-1.4175 14.8525 -3.3975 19.1425 -5.4375 23.5625 C-3.4575 23.5625 -1.4775 23.5625 0.5625 23.5625 C2.5625 26.5625 2.5625 26.5625 2.5625 30.5625 C1.80324219 30.56507813 1.04398438 30.56765625 0.26171875 30.5703125 C-2.74797018 30.68742102 -5.50253485 30.87421171 -8.4375 31.5625 C-10.7530324 34.43379568 -10.7530324 34.43379568 -11.4375 37.5625 C-13.4175 37.5625 -15.3975 37.5625 -17.4375 37.5625 C-16.84164733 33.13224816 -15.72007706 29.34800802 -14.0390625 25.2109375 C-13.31976563 23.43976563 -13.31976563 23.43976563 -12.5859375 21.6328125 C-12.08320313 20.41335937 -11.58046875 19.19390625 -11.0625 17.9375 C-10.56206901 16.6980906 -10.06206519 15.45850863 -9.5625 14.21875 C-4.13476417 0.95417635 -4.13476417 0.95417635 0 0 Z " fill="#930A0A" transform="translate(143.4375,117.4375)"/>
<path d="M0 0 C2.31 0 4.62 0 7 0 C8.33838733 2.45570175 9.67086232 4.91429916 11 7.375 C11.3815625 8.07367188 11.763125 8.77234375 12.15625 9.4921875 C15 14.7734375 15 14.7734375 15 17 C15.66 17 16.32 17 17 17 C17.26425781 16.30519531 17.52851563 15.61039063 17.80078125 14.89453125 C19.11416974 11.72443069 20.57187803 8.71540478 22.1875 5.6875 C22.73792969 4.61886719 23.28835937 3.55023438 23.85546875 2.44921875 C26 0 26 0 29.73828125 -0.35546875 C30.81464844 -0.23816406 31.89101563 -0.12085937 33 0 C31.77600751 2.50265461 30.54673018 5.00239543 29.3125 7.5 C28.94890381 8.23959961 28.58530762 8.97919922 28.21069336 9.74121094 C26.36825726 13.44160356 24.49810825 16.89745687 22.0625 20.25 C18.90180006 24.95923078 19.10099136 30.49138014 19 36 C17.02 36 15.04 36 13 36 C12.99814697 35.26209229 12.99629395 34.52418457 12.99438477 33.76391602 C12.6789749 25.37187972 10.39703669 19.9555366 5.9375 12.9375 C4.81638816 11.11648859 3.70024455 9.29240617 2.58984375 7.46484375 C2.09347412 6.677146 1.59710449 5.88944824 1.08569336 5.07788086 C0 3 0 3 0 0 Z " fill="#920808" transform="translate(231,119)"/>
<path d="M0 0 C1.98 0 3.96 0 6 0 C6 11.88 6 23.76 6 36 C4.02 36 2.04 36 0 36 C0 24.12 0 12.24 0 0 Z " fill="#8F0000" transform="translate(173,119)"/>
<path d="M0 0 C2 2 2 2 2.1953125 4.8203125 C2.16050781 6.45613281 2.16050781 6.45613281 2.125 8.125 C2.10695312 9.22070312 2.08890625 10.31640625 2.0703125 11.4453125 C2.04710937 12.28835937 2.02390625 13.13140625 2 14 C-0.34102859 15.17051429 -1.89352953 15.1992246 -4.5 15.25 C-5.69109375 15.28867188 -5.69109375 15.28867188 -6.90625 15.328125 C-7.5971875 15.21984375 -8.288125 15.1115625 -9 15 C-11.06520632 11.90219052 -11.29477024 11.0459519 -11.3125 7.5 C-11.32925781 6.7265625 -11.34601563 5.953125 -11.36328125 5.15625 C-10.28956894 -1.2167521 -5.1964824 -0.41241924 0 0 Z " fill="#6C6C6C" transform="translate(173,167)"/>
<path d="M0 0 C1.890625 0.15234375 1.890625 0.15234375 4 1 C6.03890957 3.83837675 7.41306638 6.87021424 9 10 C9.33 6.7 9.66 3.4 10 0 C10.66 0 11.32 0 12 0 C12 4.95 12 9.9 12 15 C7 14 7 14 5.63671875 12.37109375 C4.31835938 9.68554688 4.31835938 9.68554688 3 7 C2.67 9.64 2.34 12.28 2 15 C1.01 15 0.02 15 -1 15 C-1.02685412 12.68756208 -1.04632841 10.3750373 -1.0625 8.0625 C-1.07410156 6.77472656 -1.08570313 5.48695313 -1.09765625 4.16015625 C-1 1 -1 1 0 0 Z " fill="#646464" transform="translate(316,167)"/>
<path d="M0 0 C1.62463842 -0.05395478 3.24978541 -0.09277195 4.875 -0.125 C5.77992188 -0.14820313 6.68484375 -0.17140625 7.6171875 -0.1953125 C10 0 10 0 12 2 C12.125 4.875 12.125 4.875 12 8 C11.78918149 11.89459074 11.78918149 11.89459074 13 15 C11.125 14.8125 11.125 14.8125 9 14 C7.75 11.4375 7.75 11.4375 7 9 C5.68 9 4.36 9 3 9 C3 10.98 3 12.96 3 15 C2.01 15 1.02 15 0 15 C0 12.03 0 9.06 0 6 C2.97 6 5.94 6 9 6 C9 5.01 9 4.02 9 3 C6.03 3 3.06 3 0 3 C0 2.01 0 1.02 0 0 Z " fill="#6A6A6A" transform="translate(182,167)"/>
<path d="M0 0 C1.21816406 0.03480469 1.21816406 0.03480469 2.4609375 0.0703125 C3.68683594 0.09738281 3.68683594 0.09738281 4.9375 0.125 C5.87722656 0.15980469 5.87722656 0.15980469 6.8359375 0.1953125 C6.8359375 1.1853125 6.8359375 2.1753125 6.8359375 3.1953125 C4.1959375 3.1953125 1.5559375 3.1953125 -1.1640625 3.1953125 C-1.1640625 4.1853125 -1.1640625 5.1753125 -1.1640625 6.1953125 C-0.0503125 6.1540625 1.0634375 6.1128125 2.2109375 6.0703125 C5.8359375 6.1953125 5.8359375 6.1953125 7.8359375 8.1953125 C7.4609375 11.8203125 7.4609375 11.8203125 6.8359375 15.1953125 C3.2059375 15.1953125 -0.4240625 15.1953125 -4.1640625 15.1953125 C-3.8340625 14.2053125 -3.5040625 13.2153125 -3.1640625 12.1953125 C-0.5240625 12.1953125 2.1159375 12.1953125 4.8359375 12.1953125 C4.8359375 11.2053125 4.8359375 10.2153125 4.8359375 9.1953125 C3.1653125 9.2571875 3.1653125 9.2571875 1.4609375 9.3203125 C-2.1640625 9.1953125 -2.1640625 9.1953125 -4.1640625 7.1953125 C-4.4140625 4.6953125 -4.4140625 4.6953125 -4.1640625 2.1953125 C-2.1640625 0.1953125 -2.1640625 0.1953125 0 0 Z " fill="#6B6B6B" transform="translate(129.1640625,166.8046875)"/>
<path d="M0 0 C3.3 0 6.6 0 10 0 C10 0.99 10 1.98 10 3 C7.36 3 4.72 3 2 3 C2 3.99 2 4.98 2 6 C3.7015625 5.9690625 3.7015625 5.9690625 5.4375 5.9375 C9 6 9 6 10 7 C10.125 10.5 10.125 10.5 10 14 C9 15 9 15 6.71484375 15.09765625 C5.34005859 15.08025391 5.34005859 15.08025391 3.9375 15.0625 C3.01839844 15.05347656 2.09929687 15.04445312 1.15234375 15.03515625 C0.44207031 15.02355469 -0.26820313 15.01195312 -1 15 C-1 14.01 -1 13.02 -1 12 C1.97 12 4.94 12 8 12 C8 11.01 8 10.02 8 9 C6.700625 9.020625 5.40125 9.04125 4.0625 9.0625 C2.70834367 9.08399454 1.35243917 9.07148199 0 9 C-1 8 -1 8 -1.125 5.0625 C-1 2 -1 2 0 0 Z " fill="#6F6F6F" transform="translate(253,167)"/>
<path d="M0 0 C3.3 0 6.6 0 10 0 C10 0.99 10 1.98 10 3 C7.36 3 4.72 3 2 3 C2 3.99 2 4.98 2 6 C3.7015625 5.9690625 3.7015625 5.9690625 5.4375 5.9375 C9 6 9 6 10 7 C10.125 10.5 10.125 10.5 10 14 C9 15 9 15 6.71484375 15.09765625 C5.34005859 15.08025391 5.34005859 15.08025391 3.9375 15.0625 C3.01839844 15.05347656 2.09929687 15.04445312 1.15234375 15.03515625 C0.44207031 15.02355469 -0.26820313 15.01195312 -1 15 C-1 14.01 -1 13.02 -1 12 C1.97 12 4.94 12 8 12 C8 11.01 8 10.02 8 9 C6.700625 9.020625 5.40125 9.04125 4.0625 9.0625 C2.70834367 9.08399454 1.35243917 9.07148199 0 9 C-1 8 -1 8 -1.125 5.0625 C-1 2 -1 2 0 0 Z " fill="#6F6F6F" transform="translate(222,167)"/>
<path d="M0 0 C1.21816406 0.03480469 1.21816406 0.03480469 2.4609375 0.0703125 C3.68683594 0.09738281 3.68683594 0.09738281 4.9375 0.125 C5.87722656 0.15980469 5.87722656 0.15980469 6.8359375 0.1953125 C6.8359375 1.1853125 6.8359375 2.1753125 6.8359375 3.1953125 C4.1959375 3.1953125 1.5559375 3.1953125 -1.1640625 3.1953125 C-1.1640625 6.1653125 -1.1640625 9.1353125 -1.1640625 12.1953125 C1.4759375 12.1953125 4.1159375 12.1953125 6.8359375 12.1953125 C6.8359375 13.1853125 6.8359375 14.1753125 6.8359375 15.1953125 C5.37800866 15.24930986 3.91951038 15.28810427 2.4609375 15.3203125 C1.64882813 15.34351563 0.83671875 15.36671875 0 15.390625 C-2.1640625 15.1953125 -2.1640625 15.1953125 -4.1640625 13.1953125 C-4.4296875 10.6640625 -4.4296875 10.6640625 -4.4140625 7.6953125 C-4.41921875 6.715625 -4.424375 5.7359375 -4.4296875 4.7265625 C-4.08801622 1.4706362 -3.3476828 0.30213744 0 0 Z " fill="#6D6D6D" transform="translate(339.1640625,166.8046875)"/>
<path d="M0 0 C1.21816406 0.03480469 1.21816406 0.03480469 2.4609375 0.0703125 C3.68683594 0.09738281 3.68683594 0.09738281 4.9375 0.125 C5.87722656 0.15980469 5.87722656 0.15980469 6.8359375 0.1953125 C6.8359375 1.1853125 6.8359375 2.1753125 6.8359375 3.1953125 C4.1959375 3.1953125 1.5559375 3.1953125 -1.1640625 3.1953125 C-1.1640625 6.1653125 -1.1640625 9.1353125 -1.1640625 12.1953125 C1.4759375 12.1953125 4.1159375 12.1953125 6.8359375 12.1953125 C6.8359375 13.1853125 6.8359375 14.1753125 6.8359375 15.1953125 C5.37800866 15.24930986 3.91951038 15.28810427 2.4609375 15.3203125 C1.64882813 15.34351563 0.83671875 15.36671875 0 15.390625 C-2.1640625 15.1953125 -2.1640625 15.1953125 -4.1640625 13.1953125 C-4.4296875 10.6640625 -4.4296875 10.6640625 -4.4140625 7.6953125 C-4.41921875 6.715625 -4.424375 5.7359375 -4.4296875 4.7265625 C-4.08801622 1.4706362 -3.3476828 0.30213744 0 0 Z " fill="#6D6D6D" transform="translate(274.1640625,166.8046875)"/>
<path d="M0 0 C1.62463842 -0.05395478 3.24978541 -0.09277195 4.875 -0.125 C5.77992188 -0.14820313 6.68484375 -0.17140625 7.6171875 -0.1953125 C10 0 10 0 12 2 C12.25 4.5 12.25 4.5 12 7 C10 9 10 9 8.0546875 9.1953125 C6.03645833 9.13020833 4.01822917 9.06510417 2 9 C2 10.98 2 12.96 2 15 C1.34 15 0.68 15 0 15 C0 12.03 0 9.06 0 6 C2.97 6 5.94 6 9 6 C9 5.01 9 4.02 9 3 C6.03 3 3.06 3 0 3 C0 2.01 0 1.02 0 0 Z " fill="#707070" transform="translate(144,167)"/>
<path d="M0 0 C0.66 0 1.32 0 2 0 C2.66 1.65 3.32 3.3 4 5 C4.45375 4.175 4.9075 3.35 5.375 2.5 C5.91125 1.675 6.4475 0.85 7 0 C7.66 0 8.32 0 9 0 C9.66 1.65 10.32 3.3 11 5 C12.93798263 2.22739701 12.93798263 2.22739701 14 0 C14.66 0 15.32 0 16 0 C15.74445946 1.46109063 15.46999628 2.91888096 15.1875 4.375 C15.03667969 5.18710937 14.88585937 5.99921875 14.73046875 6.8359375 C14 9 14 9 11 11 C10.34 9.02 9.68 7.04 9 5 C8.34 5 7.68 5 7 5 C6.34 6.98 5.68 8.96 5 11 C4.34 11 3.68 11 3 11 C2.49384702 9.73160474 1.99530901 8.46016898 1.5 7.1875 C1.2215625 6.47980469 0.943125 5.77210938 0.65625 5.04296875 C0 3 0 3 0 0 Z " fill="#1A1A1A" transform="translate(255,366)"/>
<path d="M0 0 C1.51400391 0.01740234 1.51400391 0.01740234 3.05859375 0.03515625 C4.07050781 0.04417969 5.08242188 0.05320313 6.125 0.0625 C7.29869141 0.07990234 7.29869141 0.07990234 8.49609375 0.09765625 C8.49609375 1.08765625 8.49609375 2.07765625 8.49609375 3.09765625 C5.52609375 3.09765625 2.55609375 3.09765625 -0.50390625 3.09765625 C-0.17390625 3.75765625 0.15609375 4.41765625 0.49609375 5.09765625 C2.39142717 5.56288688 2.39142717 5.56288688 4.55859375 5.72265625 C5.85796875 5.84640625 7.15734375 5.97015625 8.49609375 6.09765625 C8.49609375 7.08765625 8.49609375 8.07765625 8.49609375 9.09765625 C6.8719063 9.17856596 5.2465763 9.2368062 3.62109375 9.28515625 C2.26371094 9.33736328 2.26371094 9.33736328 0.87890625 9.390625 C-0.30058594 9.24560547 -0.30058594 9.24560547 -1.50390625 9.09765625 C-3.65199796 5.87551868 -3.79776778 4.81990224 -3.50390625 1.09765625 C-2.50390625 0.09765625 -2.50390625 0.09765625 0 0 Z " fill="#6C6C6C" transform="translate(300.50390625,172.90234375)"/>
<path d="M0 0 C3.96 0 7.92 0 12 0 C12 0.99 12 1.98 12 3 C10.35 3 8.7 3 7 3 C7 6.96 7 10.92 7 15 C6.01 15 5.02 15 4 15 C4 11.04 4 7.08 4 3 C2.35 3 0.7 3 -1 3 C-0.67 2.01 -0.34 1.02 0 0 Z " fill="#6E6E6E" transform="translate(202,167)"/>
<path d="M0 0 C1.4540625 0.0309375 1.4540625 0.0309375 2.9375 0.0625 C2.99149736 1.52042884 3.03029177 2.97892712 3.0625 4.4375 C3.08570313 5.24960937 3.10890625 6.06171875 3.1328125 6.8984375 C2.9375 9.0625 2.9375 9.0625 0.9375 11.0625 C-1.6875 11.1875 -1.6875 11.1875 -4.0625 11.0625 C-4.3925 10.4025 -4.7225 9.7425 -5.0625 9.0625 C-4.4025 8.7325 -3.7425 8.4025 -3.0625 8.0625 C-3.7225 7.4025 -4.3825 6.7425 -5.0625 6.0625 C-4.33395709 0.0884481 -4.33395709 0.0884481 0 0 Z " fill="#5C5C5C" transform="translate(198.0625,368.9375)"/>
<path d="M0 0 C1.37478516 0.01740234 1.37478516 0.01740234 2.77734375 0.03515625 C3.69644531 0.04417969 4.61554688 0.05320313 5.5625 0.0625 C6.27277344 0.07410156 6.98304688 0.08570313 7.71484375 0.09765625 C7.71484375 1.08765625 7.71484375 2.07765625 7.71484375 3.09765625 C5.07484375 3.09765625 2.43484375 3.09765625 -0.28515625 3.09765625 C-0.28515625 4.08765625 -0.28515625 5.07765625 -0.28515625 6.09765625 C2.35484375 6.09765625 4.99484375 6.09765625 7.71484375 6.09765625 C7.71484375 7.08765625 7.71484375 8.07765625 7.71484375 9.09765625 C6.25691491 9.15165361 4.79841663 9.19044802 3.33984375 9.22265625 C2.52773438 9.24585938 1.715625 9.2690625 0.87890625 9.29296875 C-1.28515625 9.09765625 -1.28515625 9.09765625 -3.28515625 7.09765625 C-3.47265625 4.03515625 -3.47265625 4.03515625 -3.28515625 1.09765625 C-2.28515625 0.09765625 -2.28515625 0.09765625 0 0 Z " fill="#696969" transform="translate(356.28515625,172.90234375)"/>
<path d="M0 0 C3 0.125 3 0.125 4 1.125 C4.14115161 3.79558851 4.04247107 6.44932238 4 9.125 C1.36 9.125 -1.28 9.125 -4 9.125 C-4.09765625 2.97265625 -4.09765625 2.97265625 -4 1.125 C-3 0.125 -3 0.125 0 0 Z " fill="#F8F8F8" transform="translate(169,169.875)"/>
<path d="M0 0 C1.67542976 0.28604898 3.34385343 0.61781233 5 1 C6.125 5.75 6.125 5.75 5 8 C2.625 8.125 2.625 8.125 0 8 C-0.66 7.34 -1.32 6.68 -2 6 C-1.44444444 1.44444444 -1.44444444 1.44444444 0 0 Z " fill="#646464" transform="translate(184,369)"/>
<path d="M0 0 C2.31 0 4.62 0 7 0 C7.04241723 2.33294775 7.04092937 4.66702567 7 7 C6 8 6 8 3.71484375 8.09765625 C2.34005859 8.08025391 2.34005859 8.08025391 0.9375 8.0625 C0.01839844 8.05347656 -0.90070313 8.04445312 -1.84765625 8.03515625 C-2.55792969 8.02355469 -3.26820313 8.01195312 -4 8 C-4 7.01 -4 6.02 -4 5 C-1.03 5 1.94 5 5 5 C4.33131686 1.88667752 4.33131686 1.88667752 1.9375 0.8125 C1.298125 0.544375 0.65875 0.27625 0 0 Z " fill="#616161" transform="translate(256,174)"/>
<path d="M0 0 C2.31 0 4.62 0 7 0 C7.04241723 2.33294775 7.04092937 4.66702567 7 7 C6 8 6 8 3.71484375 8.09765625 C2.34005859 8.08025391 2.34005859 8.08025391 0.9375 8.0625 C0.01839844 8.05347656 -0.90070313 8.04445312 -1.84765625 8.03515625 C-2.55792969 8.02355469 -3.26820313 8.01195312 -4 8 C-4 7.01 -4 6.02 -4 5 C-1.03 5 1.94 5 5 5 C4.33131686 1.88667752 4.33131686 1.88667752 1.9375 0.8125 C1.298125 0.544375 0.65875 0.27625 0 0 Z " fill="#616161" transform="translate(225,174)"/>
<path d="M0 0 C2.125 0.375 2.125 0.375 4 1 C5 5.75 5 5.75 5 8 C3.00045254 8.04254356 0.99958364 8.04080783 -1 8 C-2 7 -2 7 -2.1875 4.5625 C-2 2 -2 2 0 0 Z " fill="#4E4E4E" transform="translate(206,369)"/>
<path d="M0 0 C0.94875 0.04125 1.8975 0.0825 2.875 0.125 C3.205 0.785 3.535 1.445 3.875 2.125 C1.895 2.455 -0.085 2.785 -2.125 3.125 C-2.125 4.775 -2.125 6.425 -2.125 8.125 C0.845 8.62 0.845 8.62 3.875 9.125 C3.545 9.785 3.215 10.445 2.875 11.125 C0 11.25 0 11.25 -3.125 11.125 C-5.125 9.125 -5.125 9.125 -5.375 5.625 C-5.05328869 1.12104166 -4.56738407 0.18269536 0 0 Z " fill="#232323" transform="translate(295.125,365.875)"/>
<path d="M0 0 C0.99 0.33 1.98 0.66 3 1 C3 5.62 3 10.24 3 15 C2.01 15 1.02 15 0 15 C0 10.05 0 5.1 0 0 Z " fill="#707070" transform="translate(288,167)"/>
<path d="M0 0 C2.125 0.375 2.125 0.375 4 1 C5.125 5.75 5.125 5.75 4 8 C2.33388095 8.042721 0.66617115 8.04063832 -1 8 C-2 7 -2 7 -2.1875 4.5625 C-2 2 -2 2 0 0 Z " fill="#505050" transform="translate(276,369)"/>
<path d="M0 0 C2.125 0.375 2.125 0.375 4 1 C5.125 5.75 5.125 5.75 4 8 C2.33388095 8.042721 0.66617115 8.04063832 -1 8 C-2 7 -2 7 -2.1875 4.5625 C-2 2 -2 2 0 0 Z " fill="#505050" transform="translate(234,369)"/>
<path d="M0 0 C1.65 0.33 3.3 0.66 5 1 C5 3.31 5 5.62 5 8 C3.02 8 1.04 8 -1 8 C-0.835 7.236875 -0.67 6.47375 -0.5 5.6875 C0.09145396 2.96403764 0.09145396 2.96403764 0 0 Z " fill="#474747" transform="translate(303,369)"/>
<path d="M0 0 C0.66 0 1.32 0 2 0 C2 0.99 2 1.98 2 3 C2.9590625 3.2165625 2.9590625 3.2165625 3.9375 3.4375 C6 4 6 4 7 5 C7.04080783 6.99958364 7.04254356 9.00045254 7 11 C6.34 11 5.68 11 5 11 C5 9.02 5 7.04 5 5 C4.01 5 3.02 5 2 5 C2 6.98 2 8.96 2 11 C1.34 11 0.68 11 0 11 C0 7.37 0 3.74 0 0 Z " fill="#3D3D3D" transform="translate(222,366)"/>
<path d="M0 0 C0.66 0 1.32 0 2 0 C2.66 1.65 3.32 3.3 4 5 C4.99 4.01 5.98 3.02 7 2 C7.99 3.485 7.99 3.485 9 5 C8.34 5 7.68 5 7 5 C6.34 6.98 5.68 8.96 5 11 C4.34 11 3.68 11 3 11 C2.49384702 9.73160474 1.99530901 8.46016898 1.5 7.1875 C1.2215625 6.47980469 0.943125 5.77210938 0.65625 5.04296875 C0 3 0 3 0 0 Z " fill="#313131" transform="translate(255,366)"/>
<path d="M0 0 C1.99954746 -0.04254356 4.00041636 -0.04080783 6 0 C7 1 7 1 7.0625 4.5625 C7.041875 5.696875 7.02125 6.83125 7 8 C6.34 8 5.68 8 5 8 C5 6.02 5 4.04 5 2 C4.01 2 3.02 2 2 2 C2 3.98 2 5.96 2 8 C1.34 8 0.68 8 0 8 C0 5.36 0 2.72 0 0 Z " fill="#323232" transform="translate(312,369)"/>
<path d="M0 0 C2.97 0 5.94 0 9 0 C9 0.66 9 1.32 9 2 C8.01 2 7.02 2 6 2 C6 4.97 6 7.94 6 11 C5.34 11 4.68 11 4 11 C4 8.03 4 5.06 4 2 C2.68 2 1.36 2 0 2 C0 1.34 0 0.68 0 0 Z " fill="#323232" transform="translate(171,366)"/>
<path d="M0 0 C0.33 0.66 0.66 1.32 1 2 C1.99 2 2.98 2 4 2 C4 2.66 4 3.32 4 4 C3.34 4 2.68 4 2 4 C2 5.32 2 6.64 2 8 C2.66 8 3.32 8 4 8 C4 8.66 4 9.32 4 10 C2.35 9.67 0.7 9.34 -1 9 C-1.33 6.69 -1.66 4.38 -2 2 C-1.34 2 -0.68 2 0 2 C0 1.34 0 0.68 0 0 Z " fill="#484848" transform="translate(215,367)"/>
<path d="M0 0 C3.3 0 6.6 0 10 0 C10.33 0.99 10.66 1.98 11 3 C7.04 3 3.08 3 -1 3 C-0.67 2.01 -0.34 1.02 0 0 Z " fill="#6F6F6F" transform="translate(298,167)"/>
<path d="M0 0 C3.63 0 7.26 0 11 0 C11 0.99 11 1.98 11 3 C7.37 3 3.74 3 0 3 C0 2.01 0 1.02 0 0 Z " fill="#696969" transform="translate(353,167)"/>
<path d="M0 0 C3.3 0 6.6 0 10 0 C10 0.99 10 1.98 10 3 C7.03 3 4.06 3 1 3 C0.67 2.01 0.34 1.02 0 0 Z " fill="#666666" transform="translate(336,179)"/>
<path d="M0 0 C3.3 0 6.6 0 10 0 C10 0.99 10 1.98 10 3 C7.03 3 4.06 3 1 3 C0.67 2.01 0.34 1.02 0 0 Z " fill="#666666" transform="translate(271,179)"/>
<path d="M0 0 C3.3 0 6.6 0 10 0 C10 0.99 10 1.98 10 3 C7.03 3 4.06 3 1 3 C0.67 2.01 0.34 1.02 0 0 Z " fill="#575757" transform="translate(354,179)"/>
<path d="M0 0 C2.64 0 5.28 0 8 0 C8 0.66 8 1.32 8 2 C6.02 2 4.04 2 2 2 C2 3.98 2 5.96 2 8 C1.34 8 0.68 8 0 8 C0 5.36 0 2.72 0 0 Z " fill="#545454" transform="translate(144,174)"/>
<path d="M0 0 C0.33 0 0.66 0 1 0 C1.33 3.63 1.66 7.26 2 11 C1.01 11 0.02 11 -1 11 C-1.02688151 9.35425434 -1.04634123 7.70838587 -1.0625 6.0625 C-1.07410156 5.14597656 -1.08570313 4.22945312 -1.09765625 3.28515625 C-1 1 -1 1 0 0 Z " fill="#565656" transform="translate(164,170)"/>
<path d="M0 0 C1.65 0 3.3 0 5 0 C5 0.66 5 1.32 5 2 C4.01 2.495 4.01 2.495 3 3 C2.34444881 5.52733235 2.34444881 5.52733235 2 8 C1.34 8 0.68 8 0 8 C0 5.36 0 2.72 0 0 Z " fill="#272727" transform="translate(242,369)"/>
<path d="M0 0 C0.94875 0.04125 1.8975 0.0825 2.875 0.125 C3.205 0.785 3.535 1.445 3.875 2.125 C2.451875 2.24875 2.451875 2.24875 1 2.375 C-2.22961791 2.77574923 -2.22961791 2.77574923 -3.5 5.1875 C-3.70625 5.826875 -3.9125 6.46625 -4.125 7.125 C-4.75 4.75 -4.75 4.75 -5.125 2.125 C-3.125 0.125 -3.125 0.125 0 0 Z " fill="#2B2B2B" transform="translate(295.125,365.875)"/>
<path d="M0 0 C0.66 0 1.32 0 2 0 C1.34 2.97 0.68 5.94 0 9 C-2 5 -2 5 -1.125 2.25 C-0.75375 1.5075 -0.3825 0.765 0 0 Z " fill="#424242" transform="translate(269,366)"/>
</svg>
