<svg width="65" height="75" viewBox="0 0 65 75" fill="none" xmlns="http://www.w3.org/2000/svg">
<g clip-path="url(#clip0_2087_2450)">
<path fill-rule="evenodd" clip-rule="evenodd" d="M7.71891 13.0858C18.8062 1.22671 31.5934 -5.2247 41.1948 5.32828C43.7132 5.44424 45.9609 6.25601 47.8497 7.9772C51.8036 11.5722 52.4017 18.3044 50.6073 23.6571V28.3141C51.8287 29.0893 52.6095 30.548 52.9746 32.2143C53.2076 33.2885 53.2642 34.4665 53.1572 35.5956C53.0439 36.7614 52.748 37.8844 52.2695 38.7939C51.5832 40.1061 50.5381 41.0277 49.1215 41.2292C47.7363 42.6574 46.3827 44.1833 45.1676 45.6603C43.8391 47.2777 42.6995 48.8097 41.9188 50.0609C41.3144 51.0314 41.5033 51.6662 41.7237 52.3864C41.8307 52.7465 41.944 53.1188 42.0259 53.5338C44.4498 54.0465 46.6471 54.4433 48.6178 54.8034C61.128 57.0739 65.0063 57.7758 65.0063 73.5473C65.0063 74.3529 64.3326 74.9999 63.5079 74.9999H32.5H1.49845C0.667377 74.9999 0 74.3468 0 73.5473C0 57.7758 3.87834 57.0678 16.3885 54.7973C18.3718 54.4372 20.5817 54.0343 23.0245 53.5216C23.1064 53.2104 23.2134 52.9174 23.3204 52.6244C23.5723 51.9286 23.8241 51.2328 23.0875 50.0609C22.3068 48.8097 21.1672 47.2777 19.8387 45.6603C18.6299 44.1833 17.27 42.6574 15.8848 41.2292C14.4682 41.0277 13.4231 40.1 12.7368 38.7939C12.2583 37.8783 11.9624 36.7553 11.8491 35.5956C11.7358 34.4665 11.7987 33.2885 12.0317 32.2143C12.3905 30.5541 13.165 29.1076 14.3738 28.3263L12.7494 27.3925C12.315 22.7233 13.5805 14.6178 7.71891 13.0858ZM47.6104 22.3998C47.3397 20.4772 46.8234 18.8659 46.0868 17.517C45.1424 16.3756 43.7699 15.4052 42.007 14.154L41.8055 14.0136C41.434 13.745 41.0563 13.4948 40.6785 13.2628C34.7477 16.9921 31.8767 16.1193 27.0917 16.8822C22.7538 17.5719 19.2343 19.1344 17.3896 21.9909C17.3896 22.0641 17.3896 22.1435 17.3896 22.2167V29.2358C17.3896 29.9254 16.8922 30.5053 16.2248 30.6518C15.6204 30.8288 15.186 31.7077 14.953 32.8063C14.783 33.6059 14.739 34.4848 14.8208 35.3271C14.9027 36.1327 15.0915 36.8896 15.4063 37.4816C15.6834 38.0126 16.0422 38.3727 16.4578 38.3788H16.5459C16.9803 38.3727 17.377 38.5436 17.654 38.8305C19.2406 40.4479 20.8083 42.1935 22.1808 43.8659C23.5597 45.5443 24.7685 47.1801 25.6374 48.5717C27.1043 50.9154 26.6195 52.2521 26.141 53.5888C26.0025 53.9733 25.864 54.3639 25.864 54.7301C25.864 55.4626 25.3037 56.0668 24.5796 56.1706C21.6898 56.7992 19.1713 57.257 16.9426 57.6598C6.69895 59.5092 3.26133 60.1379 3.01579 72.0946H32.5H61.9842C61.7387 60.1379 58.301 59.5092 48.0637 57.6476C45.8098 57.2387 43.2536 56.7748 40.3133 56.1339C39.6208 55.9814 39.1423 55.3832 39.1486 54.7179H39.1423C39.1423 54.1503 38.9912 53.6559 38.8527 53.1921C38.4434 51.831 38.0783 50.6225 39.3627 48.5656C40.2315 47.174 41.4403 45.5382 42.8192 43.8598C44.1917 42.1874 45.7594 40.4418 47.346 38.8244C47.6671 38.5009 48.1015 38.3483 48.5296 38.3788H48.5359C48.9515 38.3727 49.3103 38.0126 49.5874 37.4816C49.8959 36.8896 50.0911 36.1327 50.1729 35.3271C50.2547 34.4848 50.2107 33.6059 50.0407 32.8063C49.8014 31.6894 49.3544 30.7983 48.7374 30.6457C48.0574 30.4809 47.6041 29.8888 47.6041 29.2358V22.3998H47.6104Z" fill="#941C1C"/>
</g>
<defs>
<clipPath id="clip0_2087_2450">
<rect width="65" height="75" fill="white"/>
</clipPath>
</defs>
</svg>
