<svg width="75" height="75" viewBox="0 0 75 75" fill="none" xmlns="http://www.w3.org/2000/svg">
<path d="M24.3056 24.7653L24.3041 24.7505L24.3023 24.7357L23.135 15.5263C22.4783 7.14956 29.3016 1 37.5003 1C45.6987 1 52.522 7.14956 51.8649 15.5263L50.6977 24.7357L50.6959 24.7505L50.6944 24.7653C50.2999 28.848 48.7907 32.1667 46.5151 34.4558C44.2471 36.7373 41.1654 38.051 37.5003 38.051C33.835 38.051 30.7531 36.7373 28.4849 34.4558C26.2092 32.1667 24.6999 28.848 24.3056 24.7653Z" stroke="#941C1C" stroke-width="2"/>
<path d="M49.5565 46.0538C49.6946 46.1534 49.8434 46.2455 50.0039 46.3266L50.0039 46.3267L61.792 52.2876L61.7922 52.2877C64.2062 53.5076 65.8861 55.8149 66.3054 58.4878L66.3054 58.488L66.8655 62.0546C66.8655 62.0547 66.8655 62.0548 66.8656 62.0548C66.9606 62.6609 67.2419 64.8868 67.3576 67.0675C67.4156 68.1605 67.4299 69.2082 67.3659 70.023C67.3338 70.4328 67.2842 70.7482 67.2245 70.967C67.1991 71.06 67.1773 71.1152 67.1646 71.1438C66.9095 71.3301 66.3512 71.6153 65.2787 71.9297C64.1439 72.2623 62.5123 72.6054 60.2183 72.914C55.6312 73.5311 48.4732 74 37.5003 74C26.5272 74 19.3691 73.5311 14.782 72.914C12.488 72.6054 10.8563 72.2623 9.72157 71.9297C8.64923 71.6154 8.09093 71.3302 7.83571 71.1439C7.82305 71.1153 7.80123 71.0601 7.77586 70.9671C7.71615 70.7483 7.66664 70.4328 7.63446 70.023C7.57047 69.2082 7.5848 68.1605 7.64275 67.0674C7.75835 64.8869 8.03952 62.6611 8.13454 62.0549C8.13456 62.0548 8.13458 62.0547 8.13459 62.0546L8.69499 58.488L8.69503 58.4878C9.11435 55.8149 10.794 53.5076 13.2082 52.2877L13.2084 52.2876L24.9963 46.3267L24.9964 46.3266C25.1568 46.2455 25.3057 46.1534 25.4438 46.0538C28.8671 49.3849 33.0013 51.3828 37.5003 51.3828C41.9995 51.3828 46.1331 49.3848 49.5565 46.0538Z" stroke="#941C1C" stroke-width="2"/>
</svg>
