<svg width="40" height="40" viewBox="0 0 40 40" fill="none" xmlns="http://www.w3.org/2000/svg">
<path d="M20.2668 18.1168C20.1002 18.1002 19.9002 18.1002 19.7168 18.1168C15.7501 17.9835 12.6001 14.7335 12.6001 10.7335C12.6001 6.65016 15.9001 3.3335 20.0002 3.3335C24.0835 3.3335 27.4002 6.65016 27.4002 10.7335C27.3835 14.7335 24.2335 17.9835 20.2668 18.1168Z" stroke="#3C4043" stroke-width="2.5" stroke-linecap="round" stroke-linejoin="round"/>
<path d="M9.85886 24.5468C4.71371 27.5529 4.71371 32.4517 9.85886 35.4393C15.7056 38.8536 25.2944 38.8536 31.1411 35.4393C36.2863 32.4332 36.2863 27.5344 31.1411 24.5468C25.3156 21.1511 15.7269 21.1511 9.85886 24.5468Z" stroke="#3C4043" stroke-width="2.5" stroke-linecap="round" stroke-linejoin="round"/>
</svg>
