<svg width="40" height="40" viewBox="0 0 40 40" fill="none" xmlns="http://www.w3.org/2000/svg">
<path d="M35.7198 11.6043C35.7198 13.0706 34.5312 14.2593 33.0648 14.2593C31.5985 14.2593 30.4097 13.0706 30.4097 11.6043C30.4097 10.1379 31.5985 8.94922 33.0648 8.94922C34.5312 8.94922 35.7198 10.1379 35.7198 11.6043Z" stroke="#3C4043" stroke-width="1.6" stroke-linecap="round" stroke-linejoin="round"/>
<path d="M27.0147 9.97298C27.0147 12.3662 25.0747 14.3063 22.6815 14.3063C20.2882 14.3063 18.3479 12.3662 18.3479 9.97298C18.3479 7.57975 20.2882 5.63965 22.6815 5.63965C25.0747 5.63965 27.0147 7.57975 27.0147 9.97298Z" stroke="#3C4043" stroke-width="2" stroke-linecap="round" stroke-linejoin="round"/>
<path d="M14.9916 11.6277C14.9916 13.094 13.8029 14.2827 12.3366 14.2827C10.8702 14.2827 9.6814 13.094 9.6814 11.6277C9.6814 10.1614 10.8702 8.97266 12.3366 8.97266C13.8029 8.97266 14.9916 10.1614 14.9916 11.6277Z" stroke="#3C4043" stroke-width="1.6" stroke-linecap="round" stroke-linejoin="round"/>
<mask id="mask0_2120_1528" style="mask-type:luminance" maskUnits="userSpaceOnUse" x="28" y="16" width="11" height="16">
<path fill-rule="evenodd" clip-rule="evenodd" d="M29.2634 29.6416C30.2232 30.5078 31.4947 31.035 32.8894 31.0348H32.9151C35.9047 31.0348 38.3282 28.6113 38.3282 25.6216V17.779C38.3282 16.9656 37.6687 16.3062 36.8554 16.3062H28.2639C29.0676 16.326 29.7034 16.9931 29.6847 17.7968V26.7418C29.7082 27.754 29.5589 28.7301 29.2634 29.6416Z" fill="white"/>
</mask>
<g mask="url(#mask0_2120_1528)">
<path d="M29.2635 29.6418L27.678 29.1279L27.345 30.1554L28.147 30.8791L29.2635 29.6418ZM28.264 16.3063V14.6396L28.2226 17.9724L28.264 16.3063ZM29.6848 17.7969L28.0186 17.7584L28.0181 17.7778V17.7969H29.6848ZM29.6848 26.742H28.0181V26.7613L28.0186 26.7808L29.6848 26.742ZM32.8895 29.3683C31.9231 29.3685 31.0455 29.005 30.3801 28.4045L28.147 30.8791C29.4011 32.011 31.0668 32.702 32.8898 32.7016L32.8895 29.3683ZM32.9151 29.3683H32.8895L32.8898 32.7016H32.9151V29.3683ZM36.6616 25.6218C36.6616 27.6909 34.9843 29.3683 32.9151 29.3683V32.7016C36.8251 32.7016 39.995 29.5319 39.995 25.6218H36.6616ZM36.6616 17.7791V25.6218H39.995V17.7791H36.6616ZM36.8555 17.9729C36.7485 17.9729 36.6616 17.8863 36.6616 17.7791H39.995C39.995 16.0452 38.5893 14.6396 36.8555 14.6396V17.9729ZM28.264 17.9729H36.8555V14.6396H28.264V17.9729ZM31.351 17.8356C31.391 16.1126 30.0281 14.6828 28.3051 14.6401L28.2226 17.9724C28.1073 17.9696 28.016 17.8738 28.0186 17.7584L31.351 17.8356ZM31.3515 26.742V17.7969H28.0181V26.742H31.3515ZM30.849 30.1556C31.2015 29.0681 31.379 27.9054 31.351 26.7033L28.0186 26.7808C28.0378 27.6029 27.9165 28.3923 27.678 29.1279L30.849 30.1556Z" fill="#3C4043"/>
</g>
<mask id="mask1_2120_1528" style="mask-type:luminance" maskUnits="userSpaceOnUse" x="7" y="16" width="11" height="16">
<path fill-rule="evenodd" clip-rule="evenodd" d="M16.0796 29.6416C15.1198 30.5078 13.8483 31.035 12.4536 31.0348H12.4279C9.43827 31.0348 7.01477 28.6113 7.01477 25.6216V17.779C7.01477 16.9656 7.67427 16.3062 8.4876 16.3062H17.0791C16.2754 16.326 15.6396 16.9931 15.6583 17.7968V26.7418C15.6348 27.754 15.7841 28.7301 16.0796 29.6416Z" fill="white"/>
</mask>
<g mask="url(#mask1_2120_1528)">
<path d="M16.0795 29.6418L17.665 29.1279L17.998 30.1554L17.196 30.8791L16.0795 29.6418ZM17.079 16.3063V14.6396L17.1204 17.9724L17.079 16.3063ZM15.6582 17.7969L17.3244 17.7584L17.3249 17.7778V17.7969H15.6582ZM15.6582 26.742H17.3249V26.7613L17.3244 26.7808L15.6582 26.742ZM12.4535 29.3683C13.4199 29.3685 14.2975 29.005 14.9629 28.4045L17.196 30.8791C15.9419 32.011 14.2762 32.702 12.4532 32.7016L12.4535 29.3683ZM12.4279 29.3683H12.4535L12.4532 32.7016H12.4279V29.3683ZM8.68138 25.6218C8.68138 27.6909 10.3587 29.3683 12.4279 29.3683V32.7016C8.51788 32.7016 5.34805 29.5319 5.34805 25.6218H8.68138ZM8.68138 17.7791V25.6218H5.34805V17.7791H8.68138ZM8.48755 17.9729C8.59455 17.9729 8.68138 17.8863 8.68138 17.7791H5.34805C5.34805 16.0452 6.75371 14.6396 8.48755 14.6396V17.9729ZM17.079 17.9729H8.48755V14.6396H17.079V17.9729ZM13.992 17.8356C13.952 16.1126 15.3149 14.6828 17.0379 14.6401L17.1204 17.9724C17.2357 17.9696 17.327 17.8738 17.3244 17.7584L13.992 17.8356ZM13.9915 26.742V17.7969H17.3249V26.742H13.9915ZM14.494 30.1556C14.1415 29.0681 13.964 27.9054 13.992 26.7033L17.3244 26.7808C17.3052 27.6029 17.4265 28.3923 17.665 29.1279L14.494 30.1556Z" fill="#3C4043"/>
</g>
<mask id="mask2_2120_1528" style="mask-type:luminance" maskUnits="userSpaceOnUse" x="14" y="16" width="18" height="21">
<path fill-rule="evenodd" clip-rule="evenodd" d="M14.4728 29.0462C15.2723 32.9458 18.6757 35.9213 22.8244 36.0228C27.6477 35.9048 31.4638 31.9022 31.3516 27.0787V18.1337C31.3701 17.33 30.7344 16.6629 29.9306 16.643H22.0491L18.0146 16.6396C18.0146 17.3979 18.3383 16.9853 18.0286 16.6542C18.0241 16.6493 18.0194 16.6445 18.0146 16.6396C17.9994 16.6401 16.3479 16.643 14.3479 16.6397L14.4728 29.0462Z" fill="white"/>
</mask>
<g mask="url(#mask2_2120_1528)">
<path fill-rule="evenodd" clip-rule="evenodd" d="M16.0145 29.3065L14.4727 29.0464L12.84 29.3812C12.7394 28.8905 13.0313 30.0278 13.3478 29.6398C13.6644 29.2518 15.5138 29.3065 16.0145 29.3065ZM22.8244 34.3557C19.487 34.2552 16.659 32.4497 16.0145 29.3065L12.84 29.3812C13.792 34.0244 17.842 37.5684 22.7835 37.6892C22.8107 37.6899 22.838 37.6899 22.8652 37.6892C28.6003 37.5489 33.1394 32.7955 33.0182 27.0628V18.146C33.0435 16.435 31.6859 15.0195 29.9719 14.9771C29.958 14.9767 29.9444 14.9766 29.9305 14.9766V16.6432L29.9719 14.9771L29.9305 16.6466L29.8945 18.1002L29.6852 18.0954C29.685 18.1082 29.6849 18.121 29.6849 18.1339V18.3099V27.0789C29.6849 27.0832 29.6849 27.0876 29.6849 27.0919C29.685 27.1005 29.6851 27.1091 29.6852 27.1177C29.7757 31.0081 26.709 34.2387 22.8244 34.3557ZM29.6852 27.1177L31.3515 27.0789H31.3549L29.6852 27.1177Z" fill="#3C4043"/>
</g>
<path d="M15.3479 16.9727H30.6812" stroke="#3C4043" stroke-width="1.3"/>
</svg>
