<svg width="207" height="376" viewBox="0 0 207 376" fill="none" xmlns="http://www.w3.org/2000/svg">
<path d="M62.0098 -47V2.2286C62.0098 5.94665 65.0239 8.96072 68.7419 8.96072H116.288C120.006 8.96072 123.02 11.9748 123.02 15.6928V63.2384C123.02 66.9565 126.034 69.9705 129.752 69.9705H177.297C181.015 69.9705 184.029 72.9846 184.029 76.7026V124.248C184.029 127.966 187.044 130.98 190.762 130.98H238.307C242.025 130.98 245.039 133.994 245.039 137.712V185.258C245.039 188.976 248.053 191.99 251.771 191.99H301M1 -47V2.2286C1 5.94665 4.01407 8.96072 7.73212 8.96072H55.2777C58.9957 8.96072 62.0098 11.9748 62.0098 15.6928V63.2384C62.0098 66.9565 65.0239 69.9705 68.7419 69.9705H116.288C120.006 69.9705 123.02 72.9846 123.02 76.7026V124.248C123.02 127.966 120.006 130.98 116.288 130.98H68.7419C65.0239 130.98 62.0098 127.966 62.0098 124.248V75.8611L61.9509 75.4635C61.4992 72.4143 58.9109 70.1375 55.829 70.0782L50.2286 69.9705H7.73212C4.01407 69.9705 1 72.9846 1 76.7026V124.248C1 127.966 4.01407 130.98 7.73212 130.98H55.6985L57.2966 131.087C59.9489 131.264 62.0098 133.467 62.0098 136.125V141.289M62.0098 136.029V185.258C62.0098 188.976 65.0239 191.99 68.7419 191.99H116.288C120.006 191.99 123.02 195.004 123.02 198.722V246.268C123.02 249.986 126.034 253 129.752 253H177.297C181.015 253 184.029 256.014 184.029 259.732V307.278C184.029 310.996 187.044 314.01 190.762 314.01H238.307C242.025 314.01 245.039 317.024 245.039 320.742V368.287C245.039 372.005 248.053 375.02 251.771 375.02H301" stroke="url(#paint0_linear_2003_1779)" stroke-opacity="0.8" stroke-width="0.529536"/>
<defs>
<linearGradient id="paint0_linear_2003_1779" x1="1" y1="-47" x2="294.268" y2="315.903" gradientUnits="userSpaceOnUse">
<stop offset="0.0819437" stop-color="#F7F7F7"/>
<stop offset="0.208333" stop-color="#12C2E9"/>
<stop offset="0.526042" stop-color="#C471ED"/>
<stop offset="0.9375" stop-color="#F64F59"/>
</linearGradient>
</defs>
</svg>
