<svg width="32" height="32" viewBox="0 0 32 32" fill="none" xmlns="http://www.w3.org/2000/svg">
<path fill-rule="evenodd" clip-rule="evenodd" d="M16.0001 0.666504C14.9658 0.666504 14.0223 0.950506 12.9894 1.4326C11.9896 1.89928 10.8334 2.58803 9.3844 3.45122L7.30818 4.68802C5.71193 5.63887 4.43996 6.39656 3.47689 7.12111C2.4827 7.86908 1.7365 8.63927 1.25023 9.65358C0.76373 10.6684 0.631863 11.7305 0.674154 12.97C0.715105 14.1698 0.924994 15.6286 1.18817 17.4574L1.60518 20.3555C1.94378 22.7088 2.21247 24.5762 2.6139 26.0303C3.0277 27.5289 3.61483 28.7185 4.67431 29.6308C5.73294 30.5424 6.99955 30.9501 8.54928 31.1445C10.0544 31.3332 11.9532 31.3332 14.3488 31.3332H17.6514C20.0469 31.3332 21.9459 31.3332 23.4509 31.1445C25.0007 30.9501 26.2673 30.5424 27.3259 29.6308C28.3853 28.7185 28.9725 27.5289 29.3863 26.0303C29.7877 24.5764 30.0564 22.7088 30.395 20.3555L30.8119 17.4574C31.0752 15.6284 31.2851 14.1698 31.326 12.97C31.3684 11.7305 31.2364 10.6684 30.7499 9.65358C30.2637 8.63927 29.5175 7.86908 28.5234 7.12111C27.5603 6.39656 26.2883 5.63887 24.692 4.68802L22.6158 3.45122C21.1668 2.58803 20.0106 1.89928 19.0107 1.4326C17.9779 0.950506 17.0343 0.666504 16.0001 0.666504ZM10.431 5.31815C11.9394 4.41962 13.0036 3.7871 13.8944 3.37135C14.7632 2.96583 15.3879 2.80604 16.0001 2.80604C16.6124 2.80604 17.237 2.96583 18.1058 3.37135C18.9966 3.7871 20.0608 4.41962 21.5692 5.31815L23.5445 6.49481C25.2052 7.4841 26.3771 8.18389 27.2371 8.83083C28.0763 9.4623 28.5361 9.98481 28.8206 10.5785C29.105 11.1717 29.2233 11.8539 29.1878 12.8971C29.1512 13.9666 28.9594 15.3099 28.6855 17.2138L28.2879 19.9771C27.9363 22.4207 27.6849 24.1532 27.3239 25.4609C26.9711 26.7387 26.5464 27.4786 25.9298 28.0095C25.3123 28.5412 24.512 28.8552 23.1846 29.0216C21.8282 29.1916 20.0635 29.1936 17.5778 29.1936H14.4224C11.9367 29.1936 10.1721 29.1916 8.81553 29.0216C7.48825 28.8552 6.68782 28.5412 6.07038 28.0095C5.4538 27.4786 5.02909 26.7387 4.67627 25.4609C4.31524 24.1532 4.06391 22.4207 3.71231 19.9771L3.31468 17.2137C3.04074 15.3099 2.84895 13.9666 2.81245 12.8971C2.77686 11.8539 2.89513 11.1717 3.17952 10.5785C3.46414 9.98481 3.92379 9.4623 4.76316 8.83083C5.62309 8.18389 6.79499 7.4841 8.45572 6.49481L10.431 5.31815Z" fill="#941C1C"/>
</svg>
