<svg width="40" height="40" viewBox="0 0 40 40" fill="none" xmlns="http://www.w3.org/2000/svg">
<g clip-path="url(#clip0_2120_1529)">
<path d="M7.78702 5.44524C-0.238978 12.1799 -1.28836 24.1884 5.44514 32.213C12.1786 40.2377 24.187 41.2895 32.213 34.5549C40.239 27.8203 41.2883 15.8118 34.5548 7.78712C27.8213 -0.237556 15.813 -1.28938 7.78702 5.44524ZM31.0494 33.1683C23.7881 39.2612 12.924 38.3099 6.83179 31.0495C0.739616 23.7892 1.68927 12.9248 8.95055 6.83188C16.2118 0.738939 27.076 1.69029 33.1682 8.95065C39.2604 16.211 38.3107 27.0753 31.0494 33.1683Z" fill="#3C4043"/>
<path d="M24.9049 19.4687L18.0581 25.2139L20.0576 27.5967L26.9044 21.8516L24.9049 19.4687Z" fill="#3C4043"/>
<path d="M12.8802 28.4164L13.0833 28.6585C12.9478 28.6789 12.8181 28.7238 12.7071 28.817C12.3782 29.093 12.3358 29.5826 12.6113 29.911L14.486 32.1451C14.7615 32.4735 15.2511 32.5168 15.58 32.2408C15.691 32.1476 15.7578 32.0277 15.8015 31.8978L16.0045 32.1398C16.5138 32.7467 17.3843 32.8599 18.0329 32.4412L12.9356 26.3665C12.4107 26.9326 12.371 27.8096 12.8802 28.4164Z" fill="#3C4043"/>
<path d="M29.382 14.8245C29.271 14.9177 29.2042 15.0376 29.1607 15.1675L28.9576 14.9254C28.4484 14.3185 27.5777 14.2055 26.9292 14.624L32.0266 20.6989C32.5515 20.1327 32.5913 19.2559 32.082 18.649L31.8789 18.407C32.0145 18.3865 32.1441 18.3416 32.2551 18.2485C32.584 17.9725 32.6264 17.4829 32.3509 17.1545L30.4762 14.9204C30.2005 14.5918 29.7109 14.5485 29.382 14.8245Z" fill="#3C4043"/>
<path d="M13.1491 22.9932C12.492 23.5445 12.4062 24.5257 12.9582 25.1835L19.2016 32.6241C19.7536 33.282 20.7348 33.3678 21.3918 32.8165C22.0496 32.2645 22.1356 31.2833 21.5836 30.6254L15.3402 23.1848C14.7881 22.527 13.8069 22.4412 13.1491 22.9932Z" fill="#3C4043"/>
<path d="M23.5701 14.2488C22.9122 14.8008 22.8263 15.782 23.3783 16.4399L29.6217 23.8805C30.1737 24.5383 31.155 24.6241 31.8128 24.0721C32.4699 23.5208 32.5557 22.5396 32.0037 21.8818L25.7603 14.4412C25.2083 13.7833 24.2272 13.6975 23.5701 14.2488Z" fill="#3C4043"/>
<g clip-path="url(#clip1_2120_1529)">
<path d="M19.589 13.3313C19.5643 12.7738 19.435 12.1861 19.2151 11.632C19.0157 11.1273 18.7448 10.6403 18.4106 10.1858C18.3168 10.0575 18.221 9.93426 18.1712 9.87714L18.0569 9.73828C18.0291 9.7028 18.0057 9.67425 17.9823 9.64881L17.9479 9.61013C17.9104 9.56817 17.8717 9.52467 17.8399 9.48153C17.8375 9.47805 17.8348 9.47468 17.832 9.47131C17.8165 9.45236 17.7997 9.43336 17.781 9.41213C17.7566 9.38465 17.7289 9.35402 17.7046 9.31996C17.7015 9.3157 17.6982 9.31156 17.6949 9.30729C17.5208 9.09451 17.3751 8.90173 17.2496 8.71832C17.1027 8.50238 17.0003 8.32478 16.917 8.14086C16.8205 7.93128 16.7521 7.70008 16.7142 7.45197C16.6777 7.22716 16.6629 6.97058 16.6701 6.68846C16.6758 6.43792 16.7037 6.19835 16.7299 5.99868C16.7483 5.86579 16.7674 5.74832 16.7855 5.64459C16.7995 5.56374 16.7727 5.48112 16.7137 5.42401C16.6546 5.36678 16.5712 5.34241 16.491 5.35919C16.3712 5.38384 16.248 5.41836 16.1255 5.46161C15.8683 5.55108 15.6132 5.68088 15.3668 5.8479C15.0524 6.06152 14.7727 6.3311 14.5355 6.64861C14.2445 7.03656 14.0286 7.49948 13.9116 7.98571C13.7792 8.52055 13.7587 9.1308 13.8539 9.70303C13.9437 10.2568 14.1439 10.8281 14.4336 11.3568C14.5869 11.6322 14.7356 11.8635 14.8845 12.0589C14.9288 12.1202 15.0511 12.2791 15.0523 12.2809L15.1012 12.3432C15.1355 12.3864 15.1599 12.4188 15.1847 12.4519C15.2077 12.4823 15.2266 12.5075 15.2479 12.5327L15.2515 12.5369C15.4837 12.846 15.6469 13.0727 15.7809 13.2727C15.9291 13.4928 16.0584 13.7054 16.176 13.9224C16.3014 14.1543 16.389 14.3558 16.4518 14.5559C16.5226 14.7835 16.5641 15.0283 16.5759 15.2846C16.5873 15.5102 16.5742 15.7619 16.5363 16.0525C16.4996 16.3159 16.4458 16.555 16.404 16.73C16.3734 16.8496 16.3438 16.9599 16.3171 17.0551C16.2945 17.1358 16.3139 17.2225 16.3691 17.2855C16.4137 17.3366 16.4765 17.3663 16.543 17.3698C16.5587 17.3706 16.5747 17.37 16.5905 17.3678C16.708 17.3512 16.8215 17.3273 16.9343 17.2955C17.1976 17.2248 17.4593 17.1157 17.7115 16.9721C18.0385 16.7886 18.3375 16.5469 18.6003 16.2546C18.9189 15.9003 19.1759 15.4683 19.3433 15.0058C19.5308 14.4914 19.6159 13.912 19.589 13.3313Z" fill="#3C4043"/>
<path d="M14.654 14.5936C14.5627 14.3625 14.439 14.14 14.287 13.9334C14.2488 13.8811 14.2024 13.821 14.1796 13.7947L14.1258 13.7293C14.1118 13.7118 14.1016 13.6996 14.0908 13.6875L14.076 13.6709C14.0589 13.6519 14.0418 13.6325 14.0274 13.6134C14.0248 13.61 14.0222 13.6065 14.0194 13.6033L13.9991 13.5798C13.9873 13.5663 13.9757 13.5532 13.9658 13.5395C13.9633 13.536 13.9606 13.5325 13.9578 13.5291C13.8809 13.4353 13.815 13.3483 13.7575 13.2644C13.7088 13.1925 13.6527 13.105 13.6046 12.9991C13.5606 12.9034 13.5296 12.7983 13.5121 12.6845C13.4956 12.5821 13.4889 12.4651 13.4922 12.3365C13.4947 12.2297 13.5059 12.1292 13.5142 12.0629C13.5251 11.9755 13.4887 11.8886 13.4185 11.8352C13.3483 11.7817 13.255 11.7696 13.1734 11.8032C13.0795 11.8421 12.9866 11.8924 12.897 11.953C12.7535 12.0506 12.6259 12.1736 12.518 12.3182C12.4253 12.4416 12.3007 12.6479 12.2332 12.9279C12.1726 13.1726 12.1631 13.4515 12.2065 13.7123C12.2475 13.9654 12.3389 14.2264 12.4716 14.4686C12.5416 14.5941 12.6094 14.6996 12.6754 14.7863C12.6947 14.813 12.7368 14.8672 12.7555 14.8914L12.7551 14.8918L12.7759 14.9179C12.7923 14.9386 12.8038 14.9538 12.815 14.969C12.8248 14.9823 12.8331 14.9933 12.841 15.0024L12.8446 15.0067C12.9162 15.102 13.0084 15.2264 13.0866 15.3431C13.1546 15.4439 13.2135 15.5409 13.2668 15.6397C13.3238 15.7447 13.3638 15.8366 13.3924 15.928C13.4247 16.032 13.4438 16.1442 13.4491 16.2619C13.4543 16.3646 13.4483 16.4796 13.4312 16.6105C13.4205 16.6883 13.4051 16.7702 13.3847 16.8609C13.3648 16.9487 13.3942 17.0404 13.4612 17.1004C13.504 17.1385 13.558 17.1601 13.6136 17.163C13.645 17.1647 13.677 17.1604 13.7076 17.1498C13.7956 17.1193 13.8833 17.0792 13.9665 17.0317C14.1158 16.9483 14.2526 16.8377 14.3732 16.7037C14.5185 16.5422 14.6358 16.345 14.7123 16.1339C14.7968 15.902 14.8366 15.6303 14.8247 15.3692C14.8132 15.1146 14.7543 14.8464 14.654 14.5936Z" fill="#3C4043"/>
</g>
</g>
<defs>
<clipPath id="clip0_2120_1529">
<rect width="40" height="40" fill="white"/>
</clipPath>
<clipPath id="clip1_2120_1529">
<rect width="12" height="12" fill="white" transform="translate(10.3223 5.02734) rotate(3)"/>
</clipPath>
</defs>
</svg>
